<?xml version="1.0" encoding="utf-8"?>
<!-- Generator: Adobe Illustrator 26.5.0, SVG Export Plug-In . SVG Version: 6.00 Build 0)  -->
<svg version="1.1" id="OBJECTS" xmlns="http://www.w3.org/2000/svg" xmlns:xlink="http://www.w3.org/1999/xlink" x="0px" y="0px"
	 viewBox="0 0 214.7 255.3" style="enable-background:new 0 0 214.7 255.3;" xml:space="preserve">
<style type="text/css">
	.st0{enable-background:new    ;}
	.st1{fill:#FFFFFF;}
</style>
<g>
	<g>
		<g class="st0">
			<g>
				<g>
					<polygon class="st1" points="44.7,124.5 44.7,102.3 108.3,44.1 108.3,66.4 					"/>
				</g>
				<g>
					<polygon class="st1" points="108.3,66.4 108.3,44.1 172,102.3 172,124.5 					"/>
				</g>
			</g>
			<g>
				<path class="st1" d="M108.3,183.1L13,96l95.3-87.1L203.6,96L108.3,183.1z M41.1,96l67.2,61.4L175.5,96l-67.2-61.4L41.1,96"/>
			</g>
			<g>
				<polygon class="st1" points="108.3,216 108.3,192.5 203.6,105.5 203.6,129 				"/>
			</g>
			<g>
				<polygon class="st1" points="13,129 13,105.5 108.3,192.5 108.3,216 				"/>
			</g>
		</g>
		<g class="st0">
			<g>
				<polygon class="st1" points="108.3,249.1 108.3,225.6 203.6,138.6 203.6,162.1 				"/>
			</g>
			<g>
				<polygon class="st1" points="13,162.1 13,138.6 108.3,225.6 108.3,249.1 				"/>
			</g>
		</g>
	</g>
</g>
</svg>
