<?xml version="1.0" encoding="utf-8"?>
<!-- Generator: Adobe Illustrator 26.5.0, SVG Export Plug-In . SVG Version: 6.00 Build 0)  -->
<svg version="1.1" id="Layer_1" xmlns="http://www.w3.org/2000/svg" xmlns:xlink="http://www.w3.org/1999/xlink" x="0px" y="0px"
	 viewBox="0 0 1868.9 1892.3" style="enable-background:new 0 0 1868.9 1892.3;" xml:space="preserve">
<style type="text/css">
	.st0{clip-path:url(#SVGID_00000138575707809780287120000017756918467150339501_);fill:#FFFFFF;}
</style>
<g>
	<g>
		<defs>
			<path id="SVGID_1_" d="M471.1,1642.7c11.9-6.8,27.1-6.8,39.5,1.2c17.6,11.4,22.7,35,11.2,52.6c-11.4,17.6-35,22.7-52.6,11.3
				c-12.8-8.3-18.9-22.9-17-37c-84.1-59.3-157.7-133.8-216.4-220.4c-54.3-80.1-95.8-170.7-121-269.2c-13.9-3.3-25.4-14.2-28.6-29.1
				c-4.4-20.6,8.7-40.8,29.2-45.2c20.5-4.4,40.8,8.7,45.2,29.2c3.1,14.4-2.4,28.5-13,37.3c24.2,94.5,64,181.3,116,258
				C319.9,1514.4,390.5,1585.7,471.1,1642.7 M1227.6,1746c1.3-13.6,10-26.1,23.6-31.6c19.5-7.9,41.7,1.5,49.5,21
				c7.9,19.5-1.5,41.7-21,49.5c-14.1,5.7-29.6,2.4-40.1-7.3c-95.8,34.4-197.9,52-301.6,50.8c-97.8-1.2-196.8-19.1-293.1-55.4
				c-10.6,9.5-26.2,12.6-40.2,6.7c-19.4-8.2-28.4-30.5-20.2-49.9c8.2-19.4,30.5-28.4,49.9-20.2c13.5,5.7,22,18.3,23.1,32
				c92.3,34.8,187.3,51.9,281,53C1037.7,1795.8,1135.6,1779,1227.6,1746z M1721.8,1260.9c-9.5-9.9-13.4-24.6-8.8-38.5
				c6.6-19.9,28.2-30.7,48.1-24.1c19.9,6.6,30.7,28.2,24.1,48.1c-4.8,14.4-17.4,24-31.6,25.7c-29.5,78.2-70.5,152.2-122.1,219.5
				c-48.4,63.1-106.2,120.3-172.8,169.1c2.2,14.1-3.7,28.8-16.3,37.3c-17.4,11.8-41.1,7.2-52.8-10.2c-11.8-17.4-7.2-41.1,10.2-52.8
				c12.2-8.2,27.4-8.5,39.5-1.9c63.6-46.8,119-101.5,165.3-162C1654.1,1406.8,1693.4,1335.8,1721.8,1260.9z M1138.5,162.7
				c-8.5,10.7-22.6,16.4-37,13.7c-20.6-4-34.1-23.9-30.1-44.6c4-20.6,23.9-34.1,44.6-30.1c14.9,2.9,26.1,14.1,29.7,27.9
				c220.4,51.7,402.1,184.7,519.3,360.7c115.2,172.9,168.2,387.3,134.7,606.7c11.5,8.4,17.8,23,14.9,37.9
				c-4,20.6-23.9,34.1-44.6,30.1c-20.6-4-34.1-23.9-30.1-44.6c2.8-14.4,13.3-25.3,26.5-29.2c32-210.6-18.9-416.3-129.5-582.3
				C1524.3,340.1,1350,212.4,1138.5,162.7z M293.5,1267c11.9,0.1,23.2,6.6,29,17.9c8.3,16.2,1.9,35.9-14.3,44.2
				c-16.2,8.3-35.9,1.9-44.2-14.3c-6-11.7-4.3-25.3,3.3-35.1c-37.3-80.7-60.2-168.2-66.7-258.3c-6-83.4,2-169,25.8-253.6
				c-9-8.4-12.8-21.6-8.8-34.1c5.6-17.3,24.1-26.7,41.4-21.1c17.3,5.6,26.7,24.1,21.1,41.4c-3.9,12.1-14.1,20.3-25.8,22.3
				c-22.7,81.2-30.4,163.2-24.6,243.1C235.8,1105.7,257.8,1189.5,293.5,1267z M814.7,1670.8c6.9-9.6,18.8-15.2,31.3-13.5
				c18,2.5,30.5,19.1,28,37.1c-2.5,18-19.1,30.5-37.1,28c-13-1.8-23.2-11-26.8-22.8c-86.5-15.6-170.5-46.5-247.5-92.2
				c-72.6-43.1-138.9-99.3-195.3-168c-12.1,2.5-25.1-1.9-33-12.4c-10.9-14.5-8.1-35.1,6.4-46c14.5-10.9,35.1-8.1,46,6.4
				c7.6,10.1,8.5,23.2,3.4,33.9c54,65.9,117.6,119.7,187.2,161C651.1,1626.1,731.6,1655.8,814.7,1670.8z M1393.7,1521.5
				c-2.9-11.5,0.6-24.2,10.1-32.6c13.6-12,34.3-10.8,46.4,2.8c12,13.6,10.8,34.3-2.8,46.4c-9.8,8.7-23.4,10.5-34.7,5.6
				c-55.8,45.7-118.4,83.4-186.1,111.5c-63.5,26.3-131.4,44.1-202.2,51.9c-4.5,11.5-15.2,19.9-28.3,20.9
				c-18.1,1.3-33.8-12.4-35.1-30.5c-1.3-18.1,12.3-33.8,30.5-35.1c12.7-0.9,24.2,5.5,30.4,15.7c67.8-7.5,132.8-24.6,193.6-49.8
				C1280.1,1601.3,1340.1,1565.2,1393.7,1521.5z M1431.7,448.3c-11,4.3-24,2.5-33.6-5.8c-13.7-11.9-15.2-32.6-3.3-46.3
				c11.9-13.7,32.6-15.2,46.3-3.3c9.9,8.6,13.4,21.9,10.1,33.7c142.5,133.8,220.9,311.7,232.6,494
				c11.5,179.1-41.4,362.3-161.3,511.9c5,11.3,3.3,24.9-5.3,34.8c-11.9,13.7-32.6,15.2-46.4,3.3c-13.7-11.9-15.2-32.6-3.3-46.3
				c8.3-9.6,20.9-13.2,32.4-10.4c114.9-143.7,165.6-319.5,154.6-491.4C1643.6,747.6,1568.4,576.8,1431.7,448.3z M313.7,571.1
				C417,407.3,574.9,297,749.7,250.2c176.7-47.3,370.7-29.9,543.3,62.7c10.2-6.9,23.8-7.8,35.2-1.2c15.6,9.2,20.9,29.3,11.7,45
				c-9.2,15.6-29.3,20.9-45,11.7c-10.9-6.4-16.7-18.1-16.2-30c-165.8-88.7-351.9-105.4-521.5-60c-167.8,45-319.3,150.8-418.5,307.8
				c6.3,10,7,23.1,0.7,34c-9.1,15.7-29.2,21.1-44.9,12c-15.7-9.1-21.1-29.2-12-44.9C289.1,576,301.5,570.1,313.7,571.1z
				 M355.7,916.1c8.5,5,13.9,14.4,13.4,24.9c-0.8,15-13.6,26.6-28.6,25.8c-15-0.8-26.6-13.6-25.8-28.6c0.6-10.9,7.4-19.9,16.9-23.8
				c6.7-73.4,26.5-145.7,59.2-213.2c30.3-62.4,71.5-120.5,123.7-171.5c-3-9.8-0.3-20.8,7.8-28.1c11.2-10.1,28.4-9.2,38.5,2
				c10.1,11.2,9.2,28.4-2,38.5c-7.8,7-18.6,8.7-27.8,5.3c-50,48.9-89.5,104.6-118.5,164.4C381.2,776.4,362.2,845.7,355.7,916.1z
				 M562.6,1422.3c8.9-4.1,19.8-3.2,28.1,3.3c11.9,9.2,14,26.4,4.7,38.2c-9.2,11.9-26.4,14-38.2,4.7c-8.6-6.7-12.1-17.5-9.8-27.5
				c-55.7-47.1-103.1-104.1-139.5-168.8c-34.3-61.1-58.6-128.9-70.6-201.6c-9.7-3.2-17.2-11.7-18.6-22.6
				c-1.9-14.9,8.8-28.5,23.7-30.4c14.9-1.9,28.5,8.8,30.4,23.7c1.3,10.4-3.5,20.2-11.6,25.8c11.5,69.7,34.8,134.8,67.7,193.3
				C463.6,1322.4,509.2,1377.1,562.6,1422.3z M1040.4,1555.1c2.7-9.5,10.4-17.1,20.8-19.2c14.7-3,29.1,6.5,32.1,21.2
				c3,14.7-6.5,29.1-21.2,32.2c-10.7,2.2-21.1-2.2-27.3-10.4c-59.1,9.7-119.7,10.8-179.8,2.9c-56.5-7.4-112.6-22.8-166.8-46.6
				c-8,6.4-19.2,8-29,3.2c-13.5-6.6-19.2-22.9-12.6-36.4c6.6-13.5,22.9-19.2,36.4-12.6c9.5,4.6,15.1,14,15.3,23.8
				c51.8,22.7,105.6,37.4,159.7,44.5C925.7,1565.4,983.8,1564.3,1040.4,1555.1z M1512.7,800.1c-9.7-1.5-18.3-8.1-21.7-18.1
				c-4.9-14.2,2.6-29.7,16.9-34.6c14.2-4.9,29.7,2.6,34.6,16.9c3.6,10.3,0.6,21.3-6.7,28.4c46.9,155.2,29.4,315.5-37.8,451.2
				c-66,133.4-180,243-328.1,300.8c-1.1,10.2-7.9,19.3-18.2,22.8c-14.2,4.9-29.7-2.6-34.6-16.9c-4.9-14.2,2.6-29.7,16.9-34.6
				c9.9-3.4,20.5-0.8,27.6,5.9c142.1-55.5,251.5-160.8,314.8-288.8C1540.8,1102.9,1557.5,949.1,1512.7,800.1z M658.8,424.7
				C800.9,350,960,336.2,1105,375c146.5,39.3,278.6,132.3,364.2,270.4c10.2-0.8,20.4,4.3,25.7,13.7c7.4,13.1,2.8,29.7-10.3,37.1
				c-13.1,7.4-29.7,2.8-37.1-10.3c-5.2-9.1-4.5-20,0.8-28.2c-82.3-132.5-209.1-221.7-349.7-259.3c-139.1-37.3-291.8-24.1-428.2,47.5
				c0.4,9.8-4.5,19.5-13.6,24.8c-13,7.5-29.7,3.1-37.2-10c-7.5-13-3.1-29.7,10-37.2C639.1,418.1,650.4,418.9,658.8,424.7z M638,608
				c2,7.7-0.3,16.2-6.5,21.8c-9,8.1-22.9,7.4-31-1.6c-8.1-9-7.4-22.9,1.6-31c6.5-5.9,15.6-7.1,23.2-4c45.7-38,98.2-68,155.3-87.8
				c52.8-18.3,109.5-27.9,168.2-27.2c3.9-7.3,11.7-12,20.5-11.6c12.1,0.6,21.4,10.9,20.8,23.1c-0.6,12.1-11,21.4-23.1,20.8
				c-8.5-0.4-15.6-5.6-18.9-12.8c-56.3-0.6-110.7,8.6-161.2,26.2C732.2,542.8,681.9,571.5,638,608z M467.4,1014.4
				c7.4,2.8,13.1,9.5,14.1,17.9c1.5,12-7.1,23-19.1,24.5c-12,1.5-23-7.1-24.5-19.1c-1.1-8.7,3.1-16.9,10.1-21.3
				c-4.9-58.6,0.6-118.1,16.7-175.8c15.3-54.4,40.1-106.9,74.7-155.2c-3.7-7.4-3.1-16.5,2.3-23.4c7.5-9.6,21.3-11.3,30.8-3.8
				c9.6,7.4,11.3,21.2,3.8,30.8c-5.2,6.7-13.5,9.5-21.3,8.1c-33.2,46.3-56.9,96.7-71.6,148.8C468,901.1,462.8,958.2,467.4,1014.4z
				 M664.1,1362.5c6.9-3.8,15.7-3.8,22.8,0.9c10.1,6.7,12.9,20.3,6.2,30.4c-6.7,10.1-20.3,12.9-30.4,6.2
				c-7.3-4.8-10.8-13.3-9.6-21.5c-39.2-28.1-74.4-62-104.2-100.9c-28-36.4-51.2-77.2-68.5-121.6c-8.2-0.9-15.5-6.4-18.4-14.7
				c-4-11.5,2.1-24,13.6-27.9c11.5-4,24,2.1,27.9,13.6c2.8,8,0.6,16.6-4.8,22.3c16.6,42.5,38.8,81.5,65.6,116.4
				C592.8,1303,626.5,1335.5,664.1,1362.5z M1363.7,1201.3c-4.7-6.4-5.8-15.1-2.1-22.7c5.3-10.9,18.5-15.4,29.4-10.1
				c10.9,5.3,15.4,18.5,10.1,29.4c-3.8,7.9-11.8,12.4-20,12.4c-61.8,115.2-163.1,196.6-278.7,235.7
				c-113.6,38.4-241.1,35.9-358.4-15.6c-6.4,5.2-15.5,6.5-23.4,2.6c-10.9-5.3-15.5-18.4-10.1-29.4c5.3-10.9,18.5-15.5,29.4-10.1
				c7.6,3.7,12.1,11.2,12.4,19.1c112.6,49.3,235,51.7,344.1,14.8C1207.1,1389.9,1304.3,1311.8,1363.7,1201.3z M1090.9,500.6
				c123.6,38.4,222.2,121.2,282.7,226c61.1,105.9,83.4,234.2,53.5,361.7c6.2,5.4,9.2,14,6.8,22.5c-3.2,11.7-15.3,18.5-27,15.3
				c-11.7-3.2-18.5-15.3-15.3-27c2.2-8.2,8.8-13.9,16.6-15.6c28.6-122.4,7.2-245.5-51.5-347.1c-58.1-100.6-152.6-180.1-271.2-217
				c-5.4,5.8-13.7,8.5-21.9,6.3c-11.7-3.1-18.7-15.2-15.5-26.9c3.1-11.7,15.2-18.7,26.9-15.5
				C1083.5,485.6,1089.5,492.5,1090.9,500.6z M88.5,933.1c8.8-224,103.2-426.1,251.4-574.3c149.7-149.8,354.4-244.6,581.2-251.7
				c6.2-12.8,19.4-21.7,34.6-21.5c21,0.2,37.9,17.3,37.7,38.4c-0.2,21-17.3,37.9-38.4,37.7c-14.6-0.1-27.3-8.5-33.5-20.7
				c-217.6,7-414,98-557.7,241.8C221.6,525,130.9,718.8,122.3,933.8c12.1,6.4,20.4,19.1,20.4,33.7c0,21-17,38-38,38
				c-21,0-38-17-38-38C66.7,952.3,75.6,939.2,88.5,933.1z"/>
		</defs>
		<use xlink:href="#SVGID_1_"  style="overflow:visible;fill:#FFFFFF;"/>
		<clipPath id="SVGID_00000152961864602263615840000013565122290085299851_">
			<use xlink:href="#SVGID_1_"  style="overflow:visible;"/>
		</clipPath>
		
			<rect x="66.7" y="85.5" style="clip-path:url(#SVGID_00000152961864602263615840000013565122290085299851_);fill:#FFFFFF;" width="1766.5" height="1744.1"/>
	</g>
</g>
</svg>
