<?xml version="1.0" encoding="utf-8"?>
<!-- Generator: Adobe Illustrator 26.5.0, SVG Export Plug-In . SVG Version: 6.00 Build 0)  -->
<svg version="1.1" id="OBJECTS" xmlns="http://www.w3.org/2000/svg" xmlns:xlink="http://www.w3.org/1999/xlink" x="0px" y="0px"
	 viewBox="0 0 129 129.7" style="enable-background:new 0 0 129 129.7;" xml:space="preserve">
<style type="text/css">
	.st0{fill:#FFFFFF;}
</style>
<g>
	<path class="st0" d="M40.9,18.4L40.2,20c-0.1,0.1,0,0.3,0,0.4l0.8,1.5c0.2,0.4-0.2,0.8-0.5,0.6l-1.5-0.7c-0.1-0.1-0.3,0-0.4,0
		l-1.5,0.8c-0.4,0.2-0.8-0.2-0.6-0.5l0.7-1.5c0.1-0.1,0-0.3,0-0.4l-0.8-1.5c-0.2-0.4,0.2-0.8,0.5-0.6l1.5,0.7c0.1,0.1,0.3,0,0.4,0
		l1.5-0.8C40.6,17.7,41,18.1,40.9,18.4z"/>
	<path class="st0" d="M102.3,18.8l0,1.4c0,0.1,0,0.2,0.1,0.3l1.1,0.9c0.3,0.2,0.1,0.6-0.2,0.6l-1.4,0c-0.1,0-0.2,0-0.3,0.1l-0.9,1.1
		c-0.2,0.3-0.6,0.1-0.6-0.2l0-1.4c0-0.1,0-0.2-0.1-0.3l-1.1-0.9c-0.3-0.2-0.1-0.6,0.2-0.6l1.4,0c0.1,0,0.2,0,0.3-0.1l0.9-1.1
		C101.9,18.3,102.3,18.5,102.3,18.8z"/>
	<path class="st0" d="M86.7,113l0.9,1.1c0.1,0.1,0.2,0.1,0.3,0.1l1.4,0c0.3,0,0.5,0.4,0.2,0.6l-1.1,0.9c-0.1,0.1-0.1,0.2-0.1,0.3
		l0,1.4c0,0.3-0.4,0.5-0.6,0.2l-0.9-1.1c-0.1-0.1-0.2-0.1-0.3-0.1l-1.4,0c-0.3,0-0.5-0.4-0.2-0.6l1.1-0.9c0.1-0.1,0.1-0.2,0.1-0.3
		l0-1.4C86.1,112.8,86.5,112.7,86.7,113z"/>
	<path class="st0" d="M119,59.7l0.6,1.2c0,0.1,0.1,0.2,0.2,0.2l1.4,0.3c0.3,0.1,0.4,0.5,0.1,0.7l-1.2,0.6c-0.1,0-0.2,0.1-0.2,0.2
		l-0.3,1.4c-0.1,0.3-0.5,0.4-0.7,0.1l-0.6-1.2c0-0.1-0.1-0.2-0.2-0.2l-1.4-0.3c-0.3-0.1-0.4-0.5-0.1-0.7l1.2-0.6
		c0.1,0,0.2-0.1,0.2-0.2l0.3-1.4C118.4,59.5,118.8,59.4,119,59.7z"/>
	<path class="st0" d="M14.4,73.3l-0.9,1c-0.1,0.1-0.1,0.2-0.1,0.3l0.2,1.4c0.1,0.3-0.3,0.5-0.6,0.3l-1-0.9c-0.1-0.1-0.2-0.1-0.3-0.1
		l-1.4,0.2c-0.3,0.1-0.5-0.3-0.3-0.6l0.9-1c0.1-0.1,0.1-0.2,0.1-0.3l-0.2-1.4c-0.1-0.3,0.3-0.5,0.6-0.3l1,0.9
		c0.1,0.1,0.2,0.1,0.3,0.1l1.4-0.2C14.4,72.7,14.6,73.1,14.4,73.3z"/>
	<path class="st0" d="M106.1,24.9l-0.1,2c0,0.2,0.1,0.3,0.2,0.4l1.5,1.3c0.4,0.3,0.1,0.9-0.3,0.9l-2-0.1c-0.2,0-0.3,0.1-0.4,0.2
		l-1.3,1.5c-0.3,0.4-0.9,0.1-0.9-0.3l0.1-2c0-0.2-0.1-0.3-0.2-0.4l-1.5-1.3c-0.4-0.3-0.1-0.9,0.3-0.9l2,0.1c0.2,0,0.3-0.1,0.4-0.2
		l1.3-1.5C105.5,24.2,106.1,24.5,106.1,24.9z"/>
	<path class="st0" d="M82.9,117.3l1.2,1.5c0.1,0.1,0.2,0.2,0.4,0.2l2,0c0.5,0,0.7,0.6,0.3,0.9l-1.5,1.2c-0.1,0.1-0.2,0.2-0.2,0.4
		l0,2c0,0.5-0.6,0.7-0.9,0.3l-1.2-1.5c-0.1-0.1-0.2-0.2-0.4-0.2l-2,0c-0.5,0-0.7-0.6-0.3-0.9l1.5-1.2c0.1-0.1,0.2-0.2,0.2-0.4l0-2
		C82,117.2,82.6,117,82.9,117.3z"/>
	<path class="st0" d="M13.1,79.4l-1.3,1.5c-0.1,0.1-0.1,0.3-0.1,0.4l0.4,1.9c0.1,0.5-0.5,0.8-0.8,0.5l-1.5-1.3
		c-0.1-0.1-0.3-0.1-0.4-0.1l-1.9,0.4c-0.5,0.1-0.8-0.5-0.5-0.8l1.3-1.5c0.1-0.1,0.1-0.3,0.1-0.4L8,77.9c-0.1-0.5,0.5-0.8,0.8-0.5
		l1.5,1.3c0.1,0.1,0.3,0.1,0.4,0.1l1.9-0.4C13.1,78.5,13.4,79,13.1,79.4z"/>
	<path class="st0" d="M56.6,58.8"/>
	<path class="st0" d="M60.2,67.6c-0.2-2.3,1.5-4.3,3.7-4.5c2.3-0.2,4.3,1.5,4.5,3.7c0.2,2.3-1.5,4.3-3.7,4.5
		C62.5,71.6,60.4,69.9,60.2,67.6z"/>
	<g>
		
			<ellipse transform="matrix(0.9613 -0.2753 0.2753 0.9613 -4.2935 24.4301)" class="st0" cx="84.9" cy="27.5" rx="11.3" ry="11.3"/>
		<path class="st0" d="M112.4,40.3c-0.8-0.1-1.9,0-1.9,0s2.1-0.7,3-1.2c0.9-0.5,0.3-1.2-0.5-1.1c-0.8,0.1-2.8,0.6-2.8,0.6
			s2.6-1.6,3.3-2.2c0.7-0.6,0.1-1.7-0.9-1.1c-1.1,0.5-3.6,1.8-3.6,1.8s1.9-1.5,2.8-2.4c0.9-1-0.2-1.7-0.9-1.2
			c-0.8,0.5-3.5,2.7-3.5,2.7c1.1-1.5,0.4-2.5-0.2-2.3c-0.6,0.2-1.5,2.9-2.9,3.5c-4,0.8-8,1.6-12,2.3c-2.3,0.4-4.4,1.3-6.7,1.5
			c-3.3,0.3-6.8-0.5-9.3-2.8c-2.2-2-3.4-4.9-4.3-7.7c-1.1-3.2-2.3-6.3-3.4-9.4c-0.5-1.3-0.9-2.5-1.4-3.8c-0.2-1.5,1.5-3.7,1.4-4.4
			c-0.1-0.6-1.3-0.6-2,1.1c0,0,0.4-3.5,0.4-4.4c0-0.9-1.2-1.4-1.5-0.1c-0.3,1.3-0.5,3.7-0.5,3.7s-0.3-2.8-0.4-4
			c-0.1-1.2-1.3-1.1-1.5-0.2c-0.1,0.9-0.1,4-0.1,4s-0.7-2-1-2.7c-0.3-0.7-1.2-0.8-1.2,0.2c0.1,1,0.6,3.2,0.6,3.2s-0.6-0.9-1.1-1.6
			c-0.5-0.7-1.1-0.4-0.9,0.3c0.2,0.7,1.1,3.9,1.5,6.5L63.9,53c0.7,6.3,7.7,9.9,13.2,6.8l29.2-16.1c0.1,0,0.1,0,0.2-0.1
			c2.4-1.1,5.5-2,6.2-2.3C113.3,41,113.3,40.4,112.4,40.3z"/>
	</g>
	<g>
		<circle class="st0" cx="108.7" cy="75.5" r="10.9"/>
		<path class="st0" d="M104.5,104.5c-0.2-0.7-0.5-1.7-0.5-1.7s1.3,1.7,1.9,2.4c0.7,0.7,1.2-0.1,0.9-0.7c-0.3-0.7-1.4-2.4-1.4-2.4
			s2.2,1.9,3,2.4c0.8,0.5,1.6-0.3,0.8-1.2c-0.8-0.8-2.7-2.8-2.7-2.8s1.9,1.3,3,1.9c1.2,0.6,1.5-0.6,0.9-1.2
			c-0.7-0.6-3.5-2.5-3.5-2.5c1.7,0.6,2.4-0.3,2.1-0.8c-0.4-0.5-3.1-0.6-4.1-1.7c-1.8-3.5-3.7-7-5.5-10.5c-1-2-2.4-3.8-3.2-5.8
			c-1.2-3-1.4-6.5,0-9.4c1.3-2.6,3.6-4.5,5.9-6.1c2.6-1.9,5.2-3.8,7.8-5.8c1-0.8,2.1-1.5,3.1-2.3c1.3-0.6,3.9,0.4,4.4,0.1
			c0.5-0.3,0.2-1.4-1.6-1.5c0,0,3.3-0.6,4.2-0.9c0.9-0.3,1-1.5-0.3-1.4c-1.3,0-3.5,0.5-3.5,0.5s2.5-1,3.5-1.5
			c1.1-0.5,0.6-1.5-0.2-1.4c-0.9,0.1-3.7,1-3.7,1s1.7-1.2,2.2-1.7c0.6-0.5,0.4-1.4-0.5-1c-0.9,0.3-2.7,1.4-2.7,1.4s0.7-0.8,1.1-1.4
			c0.5-0.7,0-1.1-0.6-0.7c-0.6,0.3-3.3,2.1-5.6,3.2L79.3,63.1c-5.6,2.4-7,9.8-2.6,14.1l23,22.5c0,0,0.1,0.1,0.1,0.2
			c1.7,1.9,3.4,4.5,3.8,5.1C104.1,105.6,104.6,105.3,104.5,104.5z"/>
	</g>
	<g>
		
			<ellipse transform="matrix(0.6084 -0.7936 0.7936 0.6084 -60.4065 99.0034)" class="st0" cx="70.1" cy="110.7" rx="10.8" ry="10.8"/>
		<path class="st0" d="M41.4,115.3c0.7-0.4,1.5-1,1.5-1s-1.3,1.7-1.7,2.6c-0.4,0.8,0.4,1.1,1,0.6c0.5-0.5,1.9-2,1.9-2
			s-1.2,2.7-1.4,3.5c-0.2,0.9,0.8,1.4,1.4,0.4c0.6-1,1.9-3.3,1.9-3.3s-0.7,2.2-0.9,3.4c-0.2,1.3,1,1.3,1.4,0.5c0.3-0.8,1.3-4,1.3-4
			c-0.1,1.8,1,2.2,1.3,1.7c0.4-0.5-0.3-3.1,0.4-4.3c2.8-2.8,5.5-5.5,8.3-8.3c1.6-1.6,2.8-3.4,4.6-4.8c2.5-2,5.7-3.3,8.9-2.8
			c2.8,0.4,5.3,2,7.5,3.8c2.6,1.9,5.2,3.8,7.8,5.7c1,0.7,2.1,1.5,3.1,2.2c1,1.1,0.8,3.8,1.2,4.2c0.4,0.4,1.4-0.2,1-1.9
			c0,0,1.5,2.9,2,3.7c0.5,0.7,1.7,0.5,1.3-0.7c-0.4-1.2-1.5-3.2-1.5-3.2s1.7,2,2.5,2.9c0.8,0.9,1.6,0.2,1.3-0.6
			c-0.4-0.8-2-3.2-2-3.2s1.6,1.2,2.2,1.6c0.6,0.4,1.4-0.1,0.8-0.8c-0.6-0.7-2.2-2.2-2.2-2.2s1,0.4,1.7,0.7c0.8,0.3,1-0.3,0.5-0.8
			c-0.5-0.5-2.9-2.5-4.6-4.3L73.2,79.3c-4-4.6-11.4-3.7-14.1,1.7l-14.5,28.4c0,0-0.1,0.1-0.1,0.1c-1.3,2.1-3.3,4.6-3.7,5.1
			C40.3,115.2,40.7,115.7,41.4,115.3z"/>
	</g>
	<g>
		<path class="st0" d="M35.3,81.3c-3-5.2-9.5-7-14.7-4c-5.2,3-7,9.5-4,14.7c3,5.2,9.5,7,14.7,4C36.5,93,38.3,86.5,35.3,81.3z"/>
		<path class="st0" d="M11.1,61.6c0.6,0.5,1.5,1,1.5,1s-2.1-0.5-3-0.6c-0.9-0.1-0.9,0.8-0.2,1.1c0.7,0.3,2.6,1,2.6,1s-2.9-0.1-3.8,0
			c-0.9,0.1-1,1.3,0.1,1.4c1.1,0.1,3.8,0.5,3.8,0.5s-2.3,0.1-3.5,0.4c-1.2,0.3-0.8,1.4,0.1,1.5c0.9,0,4.2-0.3,4.2-0.3
			c-1.7,0.6-1.7,1.7-1.1,1.9c0.6,0.2,2.8-1.5,4.2-1.2c3.6,1.5,7.2,3.1,10.8,4.6c2,0.9,4.2,1.4,6.1,2.5c2.8,1.6,5.2,4.1,5.9,7.2
			c0.7,2.8,0.1,5.7-0.7,8.4c-0.9,3.1-1.6,6.2-2.4,9.3c-0.3,1.2-0.6,2.5-0.9,3.7c-0.6,1.3-3.2,2.1-3.4,2.7c-0.2,0.6,0.7,1.2,2.2,0.2
			c0,0-2.2,2.5-2.7,3.3s0.2,1.8,1.1,0.9c1-0.8,2.4-2.6,2.4-2.6s-1.2,2.4-1.8,3.4c-0.6,1,0.5,1.6,1.1,0.9c0.6-0.6,2.2-3.1,2.2-3.1
			s-0.5,2-0.7,2.7c-0.1,0.7,0.6,1.3,1,0.5c0.5-0.8,1.2-2.8,1.2-2.8s0,1,0,1.8c0,0.8,0.6,0.9,0.9,0.2c0.3-0.7,1.2-3.6,2.3-5.9
			l15.7-28.4c2.8-5.4-0.7-11.9-6.8-12.5l-31.8-3c-0.1,0-0.1,0-0.2,0c-2.5-0.4-5.5-1.4-6.2-1.5C10.8,60.6,10.5,61.1,11.1,61.6z"/>
	</g>
	<g>
		
			<ellipse transform="matrix(0.9516 -0.3072 0.3072 0.9516 -10.0016 12.004)" class="st0" cx="33.1" cy="37.8" rx="10.5" ry="10.5"/>
		<path class="st0" d="M51.8,16.3C51.6,17,51.3,18,51.3,18s-0.1-2.1-0.3-3c-0.2-0.9-1-0.6-1.1,0.1c-0.1,0.7-0.2,2.7-0.2,2.7
			s-0.8-2.7-1.2-3.5c-0.4-0.8-1.5-0.6-1.3,0.6c0.2,1.1,0.7,3.7,0.7,3.7s-0.8-2.1-1.5-3.1c-0.7-1.1-1.6-0.3-1.3,0.5
			c0.3,0.8,1.5,3.8,1.5,3.8c-1.1-1.4-2.1-1-2.1-0.4c0,0.6,2.2,2.1,2.4,3.5c-0.3,3.8-0.7,7.6-1,11.4c-0.2,2.1,0,4.3-0.4,6.4
			c-0.6,3-2.2,6-4.9,7.7c-2.4,1.5-5.3,1.8-8,1.9c-3.1,0.1-6.3,0.4-9.4,0.6c-1.2,0.1-2.5,0.2-3.7,0.3c-1.4-0.2-3-2.3-3.6-2.4
			c-0.6,0-0.9,1,0.5,2.1c0,0-3-1.2-3.8-1.5c-0.8-0.2-1.6,0.7-0.5,1.3c1.1,0.6,3.1,1.4,3.1,1.4s-2.6-0.4-3.7-0.6
			c-1.1-0.2-1.3,0.9-0.5,1.3c0.8,0.4,3.5,1.1,3.5,1.1s-2,0.1-2.7,0.2c-0.7,0.1-1,0.9-0.1,1.1c0.9,0.2,3,0.3,3,0.3s-1,0.3-1.7,0.5
			c-0.7,0.3-0.6,0.9,0.1,0.9c0.7,0,3.7,0.1,6.2,0.4l31.2,6c5.9,1,10.9-4.3,9.5-10.1l-6.9-30.4c0-0.1,0-0.1,0-0.2
			c-0.3-2.4-0.4-5.5-0.4-6.2C52.7,15.7,52.1,15.6,51.8,16.3z"/>
	</g>
</g>
</svg>
