<svg width="950" height="298" viewBox="0 0 950 298" fill="none" xmlns="http://www.w3.org/2000/svg">
<path d="M422.606 212.572C416.561 221.526 409.076 227.88 400.727 231.923C391.803 235.678 382.303 237.411 371.651 237.411C346.606 237.411 326.742 229.035 312.061 212.284C297.091 195.821 289.606 173.581 289.606 144.988C289.606 116.684 296.803 94.4445 311.485 78.2705C326.742 61.2301 346.894 52.8543 371.939 52.8543C393.53 52.8543 411.667 58.053 425.773 68.7394C437 77.9817 444.773 89.2457 448.515 103.109C449.954 108.019 446.5 112.64 441.606 112.64H426.061C418.864 112.64 413.682 109.463 410.227 102.82C407.924 98.7768 404.47 95.0221 400.151 91.5563C393.242 86.6463 384.318 84.3358 373.091 84.3358C358.409 84.3358 346.894 89.5345 338.545 100.221C330.197 111.485 325.879 126.504 325.879 144.988C325.879 164.05 330.197 179.069 339.121 189.755C347.47 200.153 359.561 205.641 375.106 205.641C386.621 205.641 396.121 202.464 403.606 195.821C411.091 188.889 415.697 179.647 417.712 167.805H396.409C391.227 167.805 386.909 166.072 383.454 162.317C380 158.852 377.985 154.519 377.985 149.321V137.479H438.151C445.061 137.479 450.818 143.255 450.818 150.187V232.79H441.894C432.394 232.79 426.348 228.169 424.045 218.638L422.606 212.572Z" fill="#409690" fill-opacity="0.55"/>
<path d="M559.636 191.488H584.97C581.227 205.641 574.03 216.616 563.667 224.125C553.015 231.923 540.061 235.967 523.939 235.967C504.651 235.967 489.394 229.613 478.742 217.193C467.803 205.063 462.333 187.445 462.333 164.628C462.333 142.966 467.515 125.926 478.167 113.507C489.106 100.799 504.076 94.7333 523.364 94.7333C543.803 94.7333 559.348 100.799 570.576 113.218C581.515 125.926 586.985 143.255 586.985 165.783V169.249V171.271C586.985 173.004 586.697 174.159 586.409 174.737H498.318C498.606 185.134 501.197 193.221 505.803 198.131C510.121 203.619 516.742 206.218 525.667 206.218C531.424 206.218 536.318 205.063 540.348 202.752C541.5 202.464 542.364 201.886 543.227 201.019C544.091 200.153 544.954 199.287 546.106 198.131C546.394 196.976 547.833 195.821 549.848 194.088C552.439 192.355 555.606 191.488 559.636 191.488ZM498.606 151.92H550.424C549.848 142.678 547.257 136.035 543.227 131.414C538.909 126.792 532.576 124.193 524.515 124.193C517.03 124.193 510.985 126.504 506.091 131.414C501.485 136.035 498.894 142.966 498.606 151.92Z" fill="#409690" fill-opacity="0.55"/>
<path d="M600.803 58.053H619.227C623.833 58.053 628.151 59.786 631.318 62.963C634.773 66.14 636.5 70.1835 636.5 75.0935V227.591C636.5 231.057 633.621 233.945 630.167 233.945H607.136C603.682 233.945 600.803 231.057 600.803 227.591V58.053Z" fill="#409690" fill-opacity="0.55"/>
<path d="M652.045 58.053H670.47C675.364 58.053 679.394 59.786 682.561 63.2518C686.015 66.7177 687.742 70.7612 687.742 75.3823V86.0687H657.803C654.636 86.0687 652.045 83.4693 652.045 80.2923V58.053ZM652.045 97.6215H670.47C675.364 97.6215 679.394 99.3544 682.561 102.82C686.015 106.286 687.742 110.33 687.742 114.951V227.591C687.742 230.768 685.151 233.367 681.985 233.367H657.803C654.636 233.367 652.045 230.768 652.045 227.591V97.6215Z" fill="#409690" fill-opacity="0.55"/>
<path d="M819.015 97.6215V177.336C819.015 201.597 812.682 217.193 800.303 224.703C787.636 232.212 774.106 235.967 759.136 235.967C744.455 235.389 731.212 231.346 719.121 223.836C707.03 216.327 700.985 201.019 700.985 177.336V105.42C700.985 101.087 704.439 97.6215 708.758 97.6215H729.197C733.515 97.6215 736.97 101.087 736.97 105.42V184.557C736.97 192.644 739.273 198.709 744.167 202.464C749.061 206.218 754.242 207.951 760.576 207.951C766.621 207.951 772.091 206.218 776.985 202.464C781.879 198.709 784.47 192.644 784.47 184.557V115.24C784.47 110.33 786.197 106.286 789.364 103.109C792.53 99.6433 796.849 97.9104 801.742 97.9104H819.015V97.6215Z" fill="#409690" fill-opacity="0.55"/>
<path d="M827.939 188.6H854.424C858.742 188.6 862.485 191.2 863.636 195.243C864.788 198.709 867.091 201.597 869.97 203.908C875.152 207.374 881.773 209.106 890.409 209.106C896.455 209.106 901.636 207.951 906.242 205.641C910.273 203.33 912.288 200.153 912.288 195.821C912.288 189.755 905.091 185.134 890.985 181.957C884.939 180.802 880.333 179.936 877.167 178.78C859.318 174.448 847.227 168.96 841.182 162.895C834.273 156.83 831.106 148.743 831.106 138.345C831.106 125.348 836 114.662 845.788 106.286C855.864 98.488 869.106 94.4445 885.515 94.4445C903.076 94.4445 917.182 98.488 927.833 106.286C935.894 113.218 940.788 121.882 942.803 132.28C943.379 136.035 940.788 139.501 937.046 139.501H921.788C915.455 139.501 910.561 136.612 907.106 130.836C905.667 129.392 904.515 128.237 903.076 126.792C899.046 123.615 893.288 122.171 886.379 122.171C879.47 122.171 874.576 123.327 871.121 125.348C867.955 127.37 866.515 130.547 866.515 134.591C866.515 140.078 875.439 144.699 893 148.454C895.015 149.032 896.742 149.609 898.47 149.898C899.909 150.187 901.349 150.476 902.788 150.476C920.061 154.808 932.152 160.007 938.773 165.783C945.106 171.849 948.561 179.936 948.561 190.333C948.561 205.352 943.091 216.905 932.439 224.992C922.364 232.501 907.106 236.256 886.667 236.256C867.379 236.256 852.985 232.212 843.485 224.414C833.697 216.616 828.803 205.063 828.803 190.333V188.6H827.939Z" fill="#409690" fill-opacity="0.55"/>
<path d="M49.803 127.37C49.803 138.634 40.5909 147.876 29.3636 147.876H20.7272C9.49997 147.876 0.287842 138.634 0.287842 127.37V118.705C0.287842 107.441 9.49997 98.1992 20.7272 98.1992H29.3636C40.5909 98.1992 49.803 107.441 49.803 118.705V127.37Z" fill="#409690" fill-opacity="0.55"/>
<path d="M98.7424 78.2705C98.7424 89.5345 89.5303 98.7768 78.3031 98.7768H69.6667C58.4394 98.7768 49.2273 89.5345 49.2273 78.2705V69.6059C49.2273 58.3419 58.4394 49.0996 69.6667 49.0996H78.3031C89.5303 49.0996 98.7424 58.3419 98.7424 69.6059V78.2705Z" fill="#409690" fill-opacity="0.55"/>
<path d="M148.833 127.37C148.833 138.634 139.621 147.876 128.394 147.876H119.758C108.53 147.876 99.3181 138.634 99.3181 127.37V118.705C99.3181 107.441 108.53 98.1992 119.758 98.1992H128.394C139.621 98.1992 148.833 107.441 148.833 118.705V127.37Z" fill="#409690" fill-opacity="0.55"/>
<path d="M98.7424 177.336C98.7424 188.6 89.5303 197.842 78.3031 197.842H69.6667C58.4394 197.842 49.2273 188.6 49.2273 177.336V168.672C49.2273 157.407 58.4394 148.165 69.6667 148.165H78.0152C89.2424 148.165 98.4546 157.407 98.4546 168.672V177.336H98.7424Z" fill="#409690" fill-opacity="0.55"/>
<path d="M197.773 29.4597C197.773 40.7238 188.561 49.966 177.333 49.966H168.697C157.47 49.966 148.258 40.7238 148.258 29.4597V20.7951C148.258 9.5311 157.47 0.288817 168.697 0.288817H177.333C188.561 0.288817 197.773 9.5311 197.773 20.7951V29.4597Z" fill="#409690" fill-opacity="0.55"/>
<path d="M68.2668 85.8599L62.9741 80.5499L37.7329 105.874L43.0253 111.184L68.2668 85.8599Z" fill="#409690" fill-opacity="0.55"/>
<path d="M160.069 164.845L165.362 159.536L140.12 134.212L134.828 139.521L160.069 164.845Z" fill="#409690" fill-opacity="0.55"/>
<path d="M116.409 136.142L111.116 130.832L85.8748 156.156L91.1674 161.466L116.409 136.142Z" fill="#409690" fill-opacity="0.55"/>
<path d="M108.317 113.055L113.61 107.745L88.3683 82.4209L83.0757 87.7306L108.317 113.055Z" fill="#409690" fill-opacity="0.55"/>
<path d="M197.773 177.336C197.773 188.6 188.561 197.842 177.333 197.842H168.697C157.47 197.842 148.258 188.6 148.258 177.336V168.672C148.258 157.407 157.47 148.165 168.697 148.165H177.333C188.561 148.165 197.773 157.407 197.773 168.672V177.336Z" fill="#409690" fill-opacity="0.55"/>
<path d="M247.288 227.013C247.288 238.277 238.076 247.52 226.848 247.52H218.212C206.985 247.52 197.773 238.277 197.773 227.013V218.349C197.773 207.085 206.985 197.842 218.212 197.842H226.848C238.076 197.842 247.288 207.085 247.288 218.349V227.013Z" fill="#409690" fill-opacity="0.55"/>
<path d="M198.636 275.824C198.636 287.088 189.424 296.33 178.197 296.33H169.56C158.333 296.33 149.121 287.088 149.121 275.824V267.16C149.121 255.895 158.333 246.653 169.56 246.653H178.197C189.424 246.653 198.636 255.895 198.636 267.16V275.824Z" fill="#409690" fill-opacity="0.55"/>
<path d="M246.712 127.37C246.712 138.634 237.5 147.876 226.273 147.876H217.636C206.409 147.876 197.197 138.634 197.197 127.37V118.705C197.197 107.441 206.409 98.1992 217.636 98.1992H226.273C237.5 98.1992 246.712 107.441 246.712 118.705V127.37Z" fill="#409690" fill-opacity="0.55"/>
<path d="M207.141 212.323L212.433 207.013L187.192 181.689L181.899 186.999L207.141 212.323Z" fill="#409690" fill-opacity="0.55"/>
<path d="M215.643 235.819L210.351 230.509L185.11 255.833L190.402 261.143L215.643 235.819Z" fill="#409690" fill-opacity="0.55"/>
<path d="M216.84 134.417L211.548 129.107L186.307 154.431L191.599 159.741L216.84 134.417Z" fill="#409690" fill-opacity="0.55"/>
</svg>
