<?xml version="1.0" encoding="utf-8"?>
<!-- Generator: Adobe Illustrator 26.5.0, SVG Export Plug-In . SVG Version: 6.00 Build 0)  -->
<svg version="1.1" id="Layer_1" xmlns="http://www.w3.org/2000/svg" xmlns:xlink="http://www.w3.org/1999/xlink" x="0px" y="0px"
	 viewBox="0 0 2335.7 2307.1" style="enable-background:new 0 0 2335.7 2307.1;" xml:space="preserve">
<style type="text/css">
	.st0{fill-rule:evenodd;clip-rule:evenodd;fill:#FFFFFF;}
</style>
<polygon class="st0" points="1006.3,1082 910.9,1177.4 603.3,1485 295.7,1177.4 603.3,869.8 757.7,1024.2 508.9,1275 604.3,1370.5 
	948.6,1024.2 603.3,678.9 104.8,1177.4 603.3,1675.9 1006.3,1272.9 1101.8,1177.4 "/>
<polygon class="st0" points="1281.3,997.9 1185.9,902.4 878.3,594.8 1185.9,287.3 1493.4,594.8 1339,749.2 1088.2,500.4 
	992.8,595.9 1339,940.2 1684.4,594.8 1185.9,96.3 687.3,594.8 1090.4,997.9 1185.9,1093.3 "/>
<polygon class="st0" points="1365.4,1272.9 1460.9,1177.4 1768.4,869.8 2076,1177.4 1768.4,1485 1614,1330.6 1862.8,1079.8 
	1767.4,984.3 1423.1,1330.6 1768.4,1675.9 2266.9,1177.4 1768.4,678.9 1365.4,1082 1269.9,1177.4 "/>
<polygon class="st0" points="1090.4,1357 1185.9,1452.4 1493.4,1760 1185.9,2067.6 878.3,1760 1032.7,1605.6 1283.5,1854.4 
	1378.9,1758.9 1032.7,1414.7 687.3,1760 1185.9,2258.5 1684.4,1760 1281.3,1357 1185.9,1261.5 "/>
</svg>
