<?xml version="1.0" encoding="utf-8"?>
<!-- Generator: Adobe Illustrator 26.5.0, SVG Export Plug-In . SVG Version: 6.00 Build 0)  -->
<svg version="1.1"
	 id="svg2" xmlns:inkscape="http://www.inkscape.org/namespaces/inkscape" xmlns:svg="http://www.w3.org/2000/svg" xmlns:sodipodi="http://sodipodi.sourceforge.net/DTD/sodipodi-0.dtd" xmlns:rdf="http://www.w3.org/1999/02/22-rdf-syntax-ns#" xmlns:cc="http://creativecommons.org/ns#" xmlns:dc="http://purl.org/dc/elements/1.1/"
	 xmlns="http://www.w3.org/2000/svg" xmlns:xlink="http://www.w3.org/1999/xlink" x="0px" y="0px" viewBox="0 0 1186.6 797.9"
	 style="enable-background:new 0 0 1186.6 797.9;" xml:space="preserve">
<style type="text/css">
	.st0{opacity:0.99;fill:#FFFFFF;fill-opacity:0.9882;enable-background:new    ;}
	.st1{opacity:0.99;fill:#FFFFFF;enable-background:new    ;}
</style>
<path id="rect2817" inkscape:connector-curvature="0" class="st0" d="M721.5,0.1c-2.6,0.1-3.7,2.9-4.7,3.9c-1.1,1.1-2,3.1-3.9,2.5
	c-1.9-0.6-3.6,3.3-4.7,4.7s-3.6,1.4-5.3,1.1c-1.7-0.3-2.8-0.3-4.4-0.3s-7.2-1.4-9.7-2.8c-2.5-1.4-7.5-1.7-8.9-1.7
	c-1.4,0-2.8,0.3-4.7-0.6c-1.9-0.8-2.3-1.1-4.8,0.3c-2.5,1.4-1.4,7-1.1,8.9s1.4,2.5-1.1,3c-2.5,0.6-5,8.4-5,9.5s-1.6,2.8-2.8,3.6
	c-1.1,0.8-4.2-0.3-6.4,0c-2.2,0.3-3,2.2-4.2,2.8c-1.1,0.6-3.6,0.3-5.6,0c-1.9-0.3-2.5-2.8-2.8-4.2c-0.3-1.4-1.1-2-2.5-2
	c-1.4,0-7.2-0.2-11.9-0.2c-4.7,0-11.4,0.3-15.6-0.6c-4.2-0.8-6.4,3.9-8.1,6.1c-1.7,2.2-3.1,0.3-4.7-1.4c-1.7-1.7-7.2-1.9-9.4-2.2
	c-2.2-0.3-2.8,2.5-3.3,3.6c-0.6,1.1-3.1,1.1-3.1,1.1l-0.1,0.6c-0.2,1.6-0.8,3.1-1.9,3.7c-1.2,0.7-1.3,0.8-0.8,2.3
	c0.4,1.5-5.8,3.3-5.8,3.3v0.4c0.1,1.7,0.6,3.9-1.4,4.2c-1.9,0.3-2.8,0.8-4,3.2c-1.2,2.4-1.4,3.3-2.1,3.6c-0.7,0.3-1.7,0.8-1,2.1
	c0.7,1.2,0.1,2.4-0.4,3.1s-0.1,0.6-1.8,1c-1.7,0.4-1,1.1-0.3,1.5c0.7,0.4,1.5,0.3,1.1,1.5c-0.4,1.2-0.3,3.3-2.1,3.6
	c-1.8,0.3-2.8,0.3-2.5,3.3h-1c-0.2,0.1-0.5,0.4-0.8,0.6c-0.1,1.1-0.4,2.3-0.6,2.7c-0.5,0.4-1.1,0.9-1.5,1.3c0,0.3,0,0.6,0,0.9
	c0.3,2.2,1.5,3,1.9,3.2c-0.7-0.3-0.7,3.8,0.8,4s2.2,1,2.2,2.5s-0.3,3.6,0.4,4.2c0.7,0.6,1.4,1.8,0.8,2.2c-0.6,0.4-1.3-0.4-1.5,0.8
	c-0.3,1.2-0.4,1.2,0.8,2.1c1.2,0.8,1.8,2.2,2.2,3.9s0.5,1.4,0.2,2.2c-0.3,0.8-0.1,0.7,0.2,1.8c0.3,1.1,0.1,1.4,0.1,1.4
	s-0.7,2.1-1.2,2.9c-0.6,0.8-3.3,2.8-3.3,2.8s-0.2,0.1-0.3,0.2l-0.1,0.1l-0.6,1c0,0.1-0.1,0.3-0.1,0.4l-0.3,0.1
	c-1.1-1.7-6.1-5.3-10-6.7c-5-1.8-3.1-4.5-3.3-8.1c-0.3-3.6-6.1-7.5-11.7-9.2c-5.6-1.7-15.8,3.1-17.8,5.3c-1.9,2.2-5.6-1.4-6.4-3.1
	s-2.2-2.2-6.4-2.8c-4.2-0.6-10.6,8-10.6,9.2c0,1.1-1.9,0.6-4.2,0c-2.2-0.6-2.8,0.9-4.4,1.7c-1.7,0.8-2.8-2-3.1-3.6s-0.8-2.8-1.7-3.6
	c-0.8-0.8-1.4-6.7-1.4-7.5c0-0.8-1.6-2.8-3-3.3c-1.4-0.6-1.4-4.5-2.2-6.4c-0.8-1.9-2.5-1.1-5-1.7c-2.5-0.6-3,1.4-3.9,2.5
	c-0.8,1.1-2.2,3.1-6.7,3.6c-4.4,0.6-9.2,9.4-9.7,12.8c-0.6,3.3-1.4,2.2-3.9,1.1c-2.5-1.1-4.4-10-4.7-12.8c-0.3-2.8-4.7-2.2-8.1-2.5
	c-3.3-0.3-5.5,2.8-5.5,2.8c-2.2,1.1-1.7,0.6-5.6-2.8c-3.9-3.3-2.2-3.9-2.2-3.9s0.2-0.4,0.3-0.8c0-0.1,0-0.2,0.1-0.3
	c0.1-0.3,0.2-0.5,0.3-0.9c0.1-1-0.2-2-1.8-2c-1.5,0-2.9,1-4.4,2.4c-1.8,1.6-3.7,3.9-6.1,6c-4.4,3.9-3.9,1.7-5.5-0.6
	c-1.7-2.2-4.5-3.9-8.3-5c-3.9-1.1-3.3,1.7-2.2,4.4c1.1,2.8,0.6,4.5-1.7,6.1c-2.2,1.7-2.8,3.3-7.8,0.6c-5-2.8,1.1-7.2,1.1-8.9
	c0-0.9-2.5-1.9-4.9-2.6h-0.1c-2.3-0.7-4.4-1.2-4.4-1.2s-2.2-1.1-3.9,0.6c-0.3,0.3-0.6,0.5-0.9,0.7h0c-1.8,1-4.7,0.9-7.9,0.4
	c-0.7-0.1-1.2-0.2-1.7-0.4h-0.2c-1-0.4-1.5-1-1.7-1.7c-0.1-0.3-0.1-0.7-0.1-1.1c0-0.4,0.1-0.8,0.2-1.2c0.6-2.2-0.6-2.2-3.3-2.8
	c-2.8-0.6-1.7-6.1-2.2-8.9c-0.6-2.8-8.3-0.6-12.2,0c-3.9,0.6-10-1.7-12.8-4.5c-2.8-2.8-3.3-1.1-6.1-1.1c-2.8,0-6.1-0.6-8.3-2.8
	c-2.2-2.2-12.8-2.2-16.7-3.3c-3.9-1.1-6.1-3.9-6.1-3.9s-1.7-2.8-5.6-4.4c-3.9-1.7-3.3,0-5.6-3.9c-2.2-3.9-6.6,2.2-8.3,2.8
	s-6.7-1.7-9.4-1.7c-2.8,0-10.6,0-16.1-0.6c-5.6-0.6-8.3-2.2-12.2-3.9c-3.9-1.7-11.1,0-15.6,2.2c-4.4,2.2-18.3,2.8-20,2.2
	c-1.7-0.6-7.2-1.1-9.4,0c-2.2,1.1-5-0.6-8.3-1.1c-3.3-0.6-7.2,10.6-6.7,11.1c0.6,0.6-3.9,4.4-6.1,4.4c-2.2,0-5,1.7-5.6,3.9
	c-0.6,2.2-3.9,4.5-6.7,6.1c-2.8,1.7-4.4,0.6-5-2.2c-0.6-2.8-4.5-1.7-6.1-1.1c-1.7,0.6-2.8,1.1-7.2-2.2c-4.4-3.3-6.1,4.5-5,6.7
	c1.1,2.2-2.2,3.9-2.2,3.9s-0.1,0.3-0.3,2.4c-0.1,2.1,1.2,2.2,2.2,2.3c1,0.1-0.3,2.5-0.8,3.2c-0.2,0.2,0,0.7,0.2,1.1
	c0.5,1.1,1.8,2.5,2.2,2.9c0.6,0.6,0,1.8-0.7,2.1c-0.7,0.3-0.1,1,0,1.7c0.1,0.7,0.1,1.1-0.8,1.2c-1,0.1-2.4,1.8-2.9,3.9
	c-0.6,2.1,1.1,3.3,2.1,3.3s1.7,0.9,2.1,1.7c0.4,0.8,0.8,3.5,1.1,3.9c0.3,0.4,0.5,1.1,0.1,1.9c-0.4,0.8,1.3,2.1,2.1,2.4
	c0.8,0.3,2.2,2.5,2.3,2.9c0.1,0.4,2.6,1.7,3.3,2.2c0.7,0.6-0.1,2.1-0.7,2.7c-0.6,0.6-0.1,1.4,0.3,3c0.4,1.7,1.1,2.2,1.8,2.7
	c0.7,0.4,1,2.5,0.2,4.3c-0.8,1.8,1,3.3,1.5,3.8c0.6,0.4,1.4,1.6,1.1,2.8c-0.3,1.1,0.4,1.8,1,2.5c0.6,0.7,1.8,2.4,2.7,3.6
	c0.8,1.2,5.3,4.5,6.2,4.9c1,0.4,0.8,1.6-0.4,2.8c-1.2,1.1-6.4-0.3-8.3-0.4c-1.9-0.1-2.8,1.3-3.1,3.9c-0.2,2.2,1.6,2.6,2.8,2.6
	c0.3,0,0.5,0,0.7-0.1c1-0.1,0.4,1.8,0,3.6c-0.4,1.8,2.4,2.5,2.9,2.6s0.7,0.9,0.1,1.7c-0.6,0.8,0.7,3.6,1.2,5
	c0.6,1.4,0.8,1.5,0.8,1.5s-0.2,0.7-0.5,1.6l0.1,0.1c0,0-0.1,0.2-0.2,0.5c-0.4,1.5-0.7,3.3,0,4.2c1.4,1.7,1.2,2.2,0.4,2.8
	c-0.8,0.6-2.8,2.2-4,2.4c-1.2,0.1-3.3,1.3-2.8,2.5c0.6,1.2,0.3,1.9,0,2.6c-0.3,0.7-1.8,4.2-2.8,4.6c-1,0.4-6.9-0.6-8.8-0.6
	c-1.8,0-9.3-0.3-10.3,2.3c-1,2.6-1.3,4.7-2.8,5.2c-1.5,0.4-1.8,0.1-2.9,2.1c-1.1,1.9-4.6,4.4-5.7,5c-0.8,0.4-3.5,2-5.3,3.3
	c-0.8,0.5-1.4,1-1.6,1.3c-0.7,1.1-6.7,5.4-7.9,6.5c-1.2,1.1-4.6,4.6-5.3,5c-0.7,0.4-2.4,1.8-2.5,2.6c-0.1,0.8-1,1.8-1.7,2.2
	c-0.7,0.4-3.6,1.4-5.8,4.5c-2.2,3.1-8.6,10.8-9.3,11.1c-0.7,0.3-2.1,0.3-2.2,1.2c-0.1,1-0.6,3.2-1.2,3.3c-0.7,0.1-3.1,0.5-3.3,1.9
	c-0.3,1.4-0.8,3.4-1.8,3.9c-1,0.6-2.1,2.5-2.9,2.8c-0.8,0.3-2.6-0.3-3.5,1.5c-0.8,1.8-2.3,5-4.6,6.5c-2.2,1.5-5.8,6.8-4.9,8.5
	c1,1.7,2.4,5.3,1.5,7.1c-0.8,1.8-0.5,2.9,0.6,3.8s1.9,2.1,1.4,4.6s-0.6,3.9,0,5s0.8,3.8-0.1,5.2c-1,1.4-2.1,4-2.2,5.1
	c-0.1,1.1-0.3,0.6-1.4,0.8s-3,0.8-3.2,2.8c-0.1,1.9,0,2.2,2.4,3.6c2.4,1.4,4.1,3.8,4.8,4.3c0.7,0.6,1,1.3,1.4,1.5
	c0.4,0.3,1,2.1,0.8,3.5s0.4,3.1-1,2.5c-1.4-0.6-1.5-1.4-1.9-1.9c-0.4-0.6-1-1-1.8-1c-0.8,0-4.9,0.7-5.8,0c-1-0.7-2.8-4.6-4-4.9
	c-1.2-0.3-2.8-0.1-3.2,1.4c-0.4,1.5-0.8,3.3-1.1,4.6c-0.3,1.2-0.3,3.5-1.4,3.3c-1.1-0.1-2.9-0.5-3.8,0.6c-0.8,1.1-1,3.9-1.7,4.2
	c-0.2,0.1-0.4,0.1-0.6,0.2c-0.2,0.1-0.4,0.2-0.5,0.3c-0.3,0.3-0.6,0.7-0.6,1.5c0,1.7-0.9,2.8-1.4,3.2c-0.6,0.4-3.3,1.5-3,4.7
	c0.3,3.2,0.2,4.2-1,5c-1.2,0.8-1.9,1.3-2.1,3.1c-0.1,1.8-1,7.1-4.4,7.6c-3.5,0.6-3.6,2.6-3.9,3.3c-0.3,0.7-1.2,1.4-2.9,2.2
	c-1.7,0.8-3,1.2-3.2,3.9c-0.1,2.6-0.3,3.3,0.1,4.3c0.4,1,0.3,1.1-0.1,1.7c-0.4,0.6-1.3,0.8-1.4,2.1c-0.1,1.2-0.3,3.6-0.3,4.2
	s-1.4,3.6,0.8,3.2s2.9-0.6,3.8-0.4c0.8,0.1,3.9,1,2.5,2.4s-1.5,3.9,0,3.8s3.3-1.1,2.9,0.8c-0.4,1.9-0.8,2.9-0.3,4.4
	c0.6,1.5,2.2,4.3,2.5,5.1c0.3,0.8,0.7,2.2,1.8,1.7c1.1-0.6,1.7-0.2,2.4,0.2c0.7,0.4,2.2,0.7,2.9,0.4c0.7-0.3,1.1-0.4,1.5,0.3
	c0.4,0.7,1.3,3.4,1.9,3.8c4.3,2.4,3.5,6.4,3.3,7.2c-0.8,3.5,2.4,4.2,3.8,4c1.4-0.1,7.5-2.5,8.6-1.8s2.9,3.2,2.9,3.2s0.7,1.8,1.3,3.4
	h18.1c1.1-1.1,2.5-1.7,3.3-1.5c0.7,0.2,1.3,0.9,1.8,1.5h230.2c1.2-2.6,3.5-7,4.5-6c1.4,1.4,3.6,4.7,5,4.7c1.4,0,2.8-2.2,2-3.6
	c-0.8-1.4-3.9-4.7-1.1-4.7c2.8,0,6.1-0.6,7.8,0.3s4.7,2.2,6.4,2.5s3.6-0.5,3.6-1.4s1.1-3.1,2.5-2.5c1.4,0.6,2.5,1.9,4.2,2.8
	c1.7,0.8,6.1,1.4,8.3-0.2c2.2-1.7,0.8-3.3,3.1-3.1c2.2,0.3,9.7,0.8,12.8-4.4l1.8-0.4c1.7-0.8,3.1-1.5,3.8-1.4c0.2,0,0.3,0.2,0.3,0.4
	c0,1-1.2,1.8,1.2,3.1c2.5,1.2,4.3,1.5,6.1,0.7c1.8-0.8,3.9-0.1,4.6,1.1c0.7,1.2,2.1,2.9,3.6,3.2c1.5,0.3,2.1,2.1,2.3,2.9
	c0.3,0.8,1.7,5.1,6.2,6c0.5,0.1,0.9,0.1,1.3,0.2h786.8c0.9-0.7,2.4-1.2,3.2-1.8c1.4-1.1,0.6-2,0-5.6s3.9-13.3,6.7-14.4
	c2.8-1.1,2.2-5.8,0.3-7.2c-1.9-1.4-3.6,0.6-4.7,0.8c-1.1,0.3-2.5,1.1-3.9-0.3c-1.4-1.4,1.6-4.5,3-5.6c1.4-1.1-0.5-3.9-1.7-5.3
	c-1.1-1.4-3.3-9.7-3.6-12.8c-0.3-3.1-3.1-2.5-3.9-3.6c-0.8-1.1,0-2.8,3.6-4.2c3.6-1.4,1.9-5,1.1-6.7c-0.8-1.7-5.3-0.6-7.2,0.3
	c-1.9,0.8-2.5,7.5-5.3,9.7c-2.8,2.2-4.4-2.5-3.3-5.8c1.1-3.3,3.3-11.1,5.8-13.9c2.5-2.8,12.5-0.5,14.7-1.4c2.2-0.8,3.1-3.9,3.6-6.1
	c0.6-2.2,0.3-3.3-0.8-5c-1.1-1.7-3.6,0.3-5,0.8c-1.4,0.6-7.8,1.1-9.7,1.1c-1.9,0-3-3-3.9-3.9s-3.1-1.7-4.7-2.5c-1.7-0.8-2-2-2-4.2
	c0-2.2,1.1-2.2,3.6-3.3s10.8-2,12.5-3.1c1.7-1.1,0.3-6.4,1.4-8.3c1.1-1.9,5.8-5,8.1-9.4c2.2-4.4,3-5.8,4.4-8.6s-1.4-3.9-2.5-5.3
	c-1.1-1.4-6.1-5.3-8.6-9.4c-2.5-4.2,0.5-6.4,3.9-10.3c3.3-3.9-3.6-5-7.8-4.4c-4.2,0.6-7.2,5.8-10,6.9c-2.8,1.1-4.2,0.5-6.4-1.1
	c-2.2-1.7-7.8-3.3-9.7-4.4c-1.9-1.1-2.5-5.3-4.2-7.8c-1.7-2.5-4.7-2.2-8.6-1.4c-3.9,0.8-7.2,0-10.8-0.8c-3.6-0.8-4.2-6.4-5-8.6
	c-0.8-2.2-2.2-3.6-4.4-3.6c-2.2,0-2.5,3-2.8,4.2c-0.3,1.1-6.1,3.6-8.6,3.9c-2.5,0.3-2.5-4.2-4.4-6.7c-1.9-2.5-8.1-0.5-10-0.5
	c-1.9,0-3.9-5.6-5.3-8.3c-1.4-2.8-3.9-0.3-4.2,1.1c-0.3,1.4-2,1.7-4.2,2.5c-2.2,0.8-3.9-0.3-4.4-1.1c-0.6-0.8-1.1-1.9-3.6-1.7
	c-2.5,0.3-3.3-1.4-6.1-4.7c-2.8-3.3-5.8-0.8-10.3,0c-4.4,0.8,0.6,7.5,0.8,8.6c0.3,1.1,1.7,3.1-0.3,3.1c-1.9,0-4.4,3-6.9,3.9
	s-2.8,1.1-3.9-1.4c-1.1-2.5-1.9-3.1-3.3-3.9c-1.4-0.8-2.8-4.7-4.8-6.7s-5.3-2.2-8-2.2c-2.8,0-3.9-2.8-5-5.6
	c-1.1-2.8-5.8-6.9-7.5-8.3c-0.7-0.6-0.7-2-0.6-3.7c0.2-2.5,0.8-5.5,0.6-6.3c-0.3-1.4-6.1-2.8-7.8-3.1c-1.7-0.3-1.9-5.3-2.8-6.9
	c-0.8-1.7-3.6-0.6-6.7,0c-3.1,0.6-7.5,1.9-7.8,3c-0.3,1.1-0.6,2-2.2,2s-6.4,1.6-8.6,3.6c-2.2,1.9-6.7,2.2-12.5,3.6
	c-2.5,0.6-4.7,2.3-6.4,4.1h-0.1c-2.3,2.4-3.7,5.1-4,6.2c-0.6,1.9-1.9,2.8-5.3,2.8c-3.3,0-1.7-1.4-4.5-6.7s-11.7,1.4-14.7,1.1
	c-1.5-0.1-2.5-1.5-3.5-3.4c-1.1-1.9-2.1-4.3-3.7-6.3c-3.1-3.9-10-3.6-16.4-3.6s-11.1,7.2-11.9,8.1c-0.8,0.8-5.8,1.4-8.6,1.1
	c-2.8-0.3-3-3-4.2-6.4c-1.1-3.3-3.3-5.8-5.3-6.9s-1.9,1.1-2.2-1.1c-0.3-2.2-1.7-5.6-3.3-10c-1.7-4.4,2.2-4.4,3.3-5.8
	c1.1-1.4-0.6-8.1-1.1-9.7c-0.6-1.7-1.9-2.8-3-3.1c-1.1-0.3-1.4-0.8-1.7-3.6c-0.3-2.8-2.2-8.3-4.7-10.8c-2.5-2.5,0.6-4.5,1.4-6.4
	c0.8-1.9-0.6-3-2.5-4.2c-1.9-1.1-6.7,1.1-8.9,0.3c-2.2-0.8-3.9-9.7-4.7-13.1c-0.8-3.3-4.2-3.3-5.8-2.8c-1.7,0.6-4.7,1.4-6.7,1.4
	s-10,2.8-13.1,3.6c-3.1,0.8-6.1-4.7-7.8-6.1c-1.7-1.4-5-1.4-9.5-1.4c-4.4,0-3.9,1.1-6.4,2.5c-2.5,1.4-4.4-0.3-6.4-2.5
	c-1.9-2.2,0-3.1,1.9-3.1s1.9-3.1,1.9-5c0-1.9-0.6-3.6-5-5c-4.4-1.4-1.7-2.5,0.3-4.2c1.9-1.7,0.3-5.8,0.3-8.6c0-1.8-2.9-5.8-5.4-9.3
	c-1.3-1.8-2.5-3.5-3.2-4.6c-0.2-0.3-0.2-0.5-0.1-0.8c0.1-0.2,0.1-0.3,0.3-0.5c3-3.6,13.1-4,18.1-5.6c4.2-1.4-1.4-9.2-2.8-11.4
	c-1.4-2.2-5-3.1-7.2-4.5c-2.2-1.4-2.2-3.6-3.9-5c-1.7-1.4-3.3-1.9-4.2-2.2c-0.8-0.3-1.7-2.5-1.9-4.2c-0.3-1.7-1.7-3.6-2.5-5.3
	c-0.8-1.7-0.8-2.2,0-3.6c0.8-1.4,0.8-2.8,0.8-4.5s-4.7-6.4-6.1-8c-1.4-1.7-8.3-10.3-11.1-12.2c-2.8-1.9-5.6-1.4-8.1-1.1
	c-2.5,0.3-5.3,4.7-7.8,6.4c-2.5,1.7-2.5-3.6-3.1-4.4c-0.6-0.8-3-1.7-6.4-1.7s-9.2-0.3-12.2-0.6C721.8,0.1,721.6,0.1,721.5,0.1
	L721.5,0.1L721.5,0.1z"/>
<path id="rect2819" inkscape:connector-curvature="0" class="st1" d="M26.6,395.9c-0.2,2.8,2.6,3.3,3.8,3.2c1.4-0.1,7.5-2.5,8.6-1.8
	s2.9,3.2,2.9,3.2s2.1,5.3,2.3,6c0.3,0.7,0.7,2.4,0,2.8c-0.7,0.4-1.2,0.6-1.2,1c0,0.4-0.3,0.4-0.8,1.1c-0.6,0.7-1.4,2.2,0.2,2.8
	c1.5,0.6,1.4,1,1.7,1.4c0.3,0.4,0.6,0.5,1.2,0.4s3.2-1.1,2.5-2.8c-0.7-1.7-0.1-3.3,0.7-2.9c0.8,0.4,3.2,2.5,4.5,2.9
	c1.2,0.4,4.4-1.2,5-1.8c0.6-0.6,1.7-5.2,2.8-6.7c1.1-1.5,3-2.5,4-2.2c1,0.3,1.7,1.5,2.4,1.9c0.7,0.4,1.8,0.7,2.2,0.6
	c0.4-0.1,1.3,0,1.5,0.6c0.3,0.6,0.8,4.2,2.2,5c1.4,0.8,2.4,1.4,2.9,2.4c0.6,1,1.1,2.1,2.4,1.9c1.2-0.1,1.8,0.1,2.2,0.4
	c0.4,0.3,2.6,2.1,4,1.5c0.9-0.3,1.4-0.6,1.8-0.8c0.2-0.3,0.4-0.5,0.6-0.6c0.6-0.3,1.4-0.6,1.4-0.6l3.3,1.8c1.8,0,2.6,0.1,3.3,0.7
	c0.7,0.6,2.8,1.1,4,1.1c1.2,0,3.9,0,5.6,1.1c1.7,1.1,2.6,2.2,2.9,3.3c0.3,1.1,0.7,2.8,2.5,2.1c1.8-0.7,4.2-3.3,6.4-2.8
	c2.2,0.6,6.5,1.4,7.8,3.3c0.3,0.5,0.6,1,0.8,1.4c0.8,1.2,1.4,1.9,3.2,1.4l1.7-0.4c0,0,3.6,2.5,6.7,0.8s3.9-0.8,5.3-0.6
	c1.4,0.3,1.4-1.4,2.8-1.7c1.4-0.3,1.1-3.6,9.2-0.3c8.1,3.3,6.1,3.9,7.8,5s1.4,1.7,1.1,2.8c-0.3,1.1-0.6,2.5,2.2,4.2
	c1,0.6,2.1,1.2,3.1,1.7c1.9,0.9,3.6,1.8,4.1,2.5c0.8,1.1,3.3,6.9,3.6,8c0.3,1.1,1.7,2.8,3.6,2c1.9-0.8,1.9-0.8,4.2-0.8
	c2.2,0,8.6-2.5,10-5c1.4-2.5,2.5-5,3.6-5.3c0.9-0.2,1.2-0.8,1.5-1.4c0.1-0.2,0.2-0.4,0.2-0.6c0.3-0.8,0.8-1.9,2.5-2.8
	c1.7-0.8,5.6-2.8,7.2-2.2c1.7,0.6,4.5,0.3,5.8-0.3c1.4-0.6,2.2-1.1,3.9-0.8c1.7,0.3,14.4,0.8,16.4,1.1c1.9,0.3,3.1,0,4.2-0.8
	c1.1-0.8,1.9-1.7,3.9-1.7c1.9,0,4.5-0.6,6.1-0.3c1.7,0.3,2.8,0,3.9-0.3c1.1-0.3,3.3-0.6,5.6,0c2.2,0.6,5.8,0,6.7-1.1
	c0.8-1.1,2.2-5.8,3.3-6.1c1.1-0.3,3.1-1.4,3.1-2.2c0-0.8,1.6-5.3,2.8-6.7c1.1-1.4-0.5-3.1,0.8-3.1s2.8-0.8,2.8-0.8h0.6
	c0.2,0.3,0.5,0.5,0.8,0.6c0.4,0.1,0.8,0,1.1-0.3c0.6-0.6,3.4-2.9,5-2.3c1.5,0.6,3.3,1.7,4.6,1c1.2-0.7,2.1-1.3,2.2-1.8
	c0.1-0.2,0.2-0.5,0.3-0.8c0.2-0.4,0.6-0.7,0.9-0.5c0.6,0.4,1.1,1.1,1.7,0.3l1.2-1.7c0,0,3.9-9.1,5.2-7.8c1.4,1.4,3.6,4.7,5,4.7
	c1.4,0,2.8-2.2,2-3.6c-0.4-0.7-1.5-2-2-3.1L26.6,395.9L26.6,395.9z M317.8,395.9c1.2,0.5,2.5,1,3.4,1.1c1.5,0.3,3.2-0.4,3.6-1.1
	H317.8z M331.5,395.9c1.6,0.8,5.7,1.4,8,0H331.5z M378.6,395.9c0.4,0.6,0.7,1.4,0.8,1.8c0.3,0.8,1.7,5.1,6.2,6
	c4.6,0.8,7.5,0.7,7.4,2.9c-0.1,1.3-0.7,3.2-0.9,4.6c-0.2,1-0.2,1.8,0.3,1.9c1.2,0.4,2.9-0.3,3.8-1.8c0.8-1.5,2.4-0.6,2.5,0.5
	s0.4,5.9,3.6,3.9c3.2-1.9,6.1-4.7,7.3-3.3c1.2,1.4,2.9,4.5,0.6,6.4c-2.4,1.9-4.9,4.3-2.4,5c2.5,0.7,2.8-0.8,3.8-2.5
	c1-1.7,3.2-2.1,3.5,0c0.3,2.1,0.2,2.1-0.1,4.6c0,0,5.7,9.9,4,0c-0.3-1.7,4.7-5,8.1-3.9c2.6,0.4,8.2,0.3,11.2,1.8
	c0.2,0.1,0.5,0.2,0.7,0.3c0.7,0.4,1.2,1,1.4,1.7c0.7,2.3,2.9,9.2,5.9,13.9c0.8,1.2,1.6,2.2,2.4,3c0.4,0.3,0.7,0.6,1.1,0.8
	c0.4,0.3,0.8,0.5,1.2,0.6c0,0,0.1,0,0.2,0c0,0,0.1,0.1,0.1,0.1c0.2,0,0.4,0.1,0.6,0.1c0.4,0,0.8-0.1,1.2-0.2
	c6.1-2.2,9.5-6.1,10.6-2.2c1.1,3.9,3.3,7.2,5.6,7.8c2.2,0.6-5.6,6.1-3.3,8.3c2.2,2.2,4.5,3.9,3.3,6.7c-1.1,2.8-2.8,3.9-3.9,6.7
	c-1.1,2.8-0.5,7.8-1.7,10.6c-1.1,2.8-2.8,2.8-1.7,5.5c1.1,2.8,2.2,3.9,5.5,4.5c3.3,0.6,6.7,6.1,8.3,8.3c1.7,2.2,0,6.1,2.8,7.8
	c2.8,1.7,6.1,0.6,6.7-1.1c0.6-1.7,3.3-2.8,5-0.6c1.7,2.2,3.9,7.2,0.6,8.3c-3.3,1.1-2.2,3.3-1.7,5.6c0.6,2.2,2.2,3.4-1.1,3.9
	c-3.3,0.6-4.4,1.6-2.8,3.3c1.7,1.7,2.8,4.4,5,2.8c2.2-1.7,3.3,0,3.3,1.7c0,1.7-1.1,5-2.2,6.1c-1.1,1.1-3.3,3.9,0,5
	c3.3,1.1,5.6,0.6,7.2,3.3c1.7,2.8,3.3,1.1,6.1,2.8c2.8,1.7,2.8,2.2,5,3.9c2.2,1.7,2.8-0.5,4.4,1.1c1.7,1.7,3.9,2.2,2.2,4.4
	c-1.7,2.2-3.4,7.2-2.2,10.5c1.1,3.3,1.7,5.6,0.6,8.3c-1.1,2.8-3.3,7.8-1.7,8.9c1.7,1.1,2.8,6.7,8.3,8.9c5.6,2.2,4.4,3.3-0.6,3.9
	c-5,0.6-8.3,0.6-10,2.8s-6.1,0.6-6.1-1.7s1.7-8.3-2.2-7.8c-3.9,0.6-7.2-2.2-6.7,2.8c0.6,5-1.7,6.7-4.4,4.4c-2.8-2.2-7.2-3.9-7.2-3.9
	s2.2-5,0-5c-2.2,0-5.6,0-5.6,2.2c0,2.2-1.7,5-2.8,3.3c-1.1-1.7-1.7-3.3-4.4-2.8c-2.8,0.6-2.8,1.1-3.3,3.3c-0.6,2.2-2.8,3.9-4.4,3.3
	c-1.7-0.6,0-3.9,0.6-6.7c0.6-2.8,1.1-10.6-2.2-8.9c-3.3,1.7-3.9,3.3-7.2,5c-3.3,1.7-12.2,1.7-10.5,7.2c1.7,5.6,1.6,8.9,1.1,10.6
	c-0.6,1.7-0.5,2.8,1.1,5c1.7,2.2,5.5,5.6,3.3,7.2c-2.2,1.7-5,5-5,8.3c0,3.3,1.1,6.6-1.7,8.3c-2.8,1.7-11.1,3.3-12.2,5.6
	c-1.1,2.2,1.1,9.5-0.6,11.1c-1.7,1.7-4.4,2.8-10.5,6.7c-6.1,3.9-9.4,5.6-7.8,10.6c1.7,5,0.5,5.6,0.5,10c0,1.4-0.1,2.6-0.5,3.5
	c-0.7,1.8-2.1,2.4-4,2.1c-1.4-0.3-5.3-1.9-8.9-2.1s-7.2,1.2-7.7,7.1v0.6c2.2,0.7,3.6,1.4,3.9,2.5c0.3,1.1,0.1,6.5,2.8,9.4
	c2.6,2.9,7.2,4.9,9.9,5.7c2.6,0.8,3.7,1.4,5.1,2.6s3.9,1.4,4.6,1.4c0.7,0,2.1,0.2,3.3,1c1.2,0.8,3.5,1.7,4.8,1.2
	c1.4-0.4,3.2-0.7,3.8-0.7c0.6,0,2.4-0.8,1.4-1.4c-1-0.6-4.3-2.8-2.2-3.5c2.1-0.7,2.5-1.1,2.1-2.1s-0.8-3.1,0.7-2.8
	c1.5,0.3,2.1,0.7,2.5,1.4c0.4,0.7,1.3,1.2,2,1.1c0.7-0.1,1.4,0.4,1.7,0.8c0.3,0.4,3.5,3.2,4.3,1.4c0.8-1.8,1.8-5.3,3.9-6.5
	c2.1-1.2,2.8-1.2,3.8-1.9c1-0.7,2.4-1.4,3.6-1c1.2,0.4,1.4,0.4,2.8,0c1.4-0.4,3.6-2.4,4.5-3.2c0.8-0.8,1.5-1.1,2.8-1
	c1.2,0.1,2.8,0.3,3.9-0.6c1.1-0.8,1.9-0.7,2.6-0.6c0.7,0.1,2.7,0.6,3.9,0.4c1.2-0.1,2.2-0.4,3.5,0.7c1.2,1.1,1.5,1.1,3.9,1.7
	c2.4,0.6,6.3,2.2,7,3.3c0.7,1.1,4.2,4.9,4.4,7.5c0.3,2.6,0.4,4.5,1.2,5.6c0.8,1.1,2.3,2.6,2.3,2.6l-0.1,0.1l0.3-0.1l0.7-0.1l0.2-0.3
	v-0.8l-0.4-0.9l0-0.7l0.3-0.5l1.2-3.9l1.1-2.3l0.1-0.5l-0.1-0.3c0,0-0.3-0.6-0.5-1c-0.1-0.1-0.1-0.2-0.1-0.2l0.3-1.5l-0.5-1.7
	l-0.1-2.7l-0.4-0.5l-0.8-0.6v-0.3l1,0.4h0.4l0.2-0.2l0.1-0.4l0.1-3.5l-0.2-0.3l-0.7-0.7l-0.3-1l-0.6-0.3l-0.4,0.5l-0.6,2.6l-0.3,0.6
	l-0.2-0.3l-0.1-1.5l-0.3-0.6l-0.3-0.1l-0.7,0.3l-0.5,0.9l-0.2,0.3h-0.3l-0.2-0.6l0.1-1.2l-0.2-0.7l-0.1-0.2l-0.4-0.1l-0.3,0.2
	l-0.4,0.5l-0.3,0.8l-0.2,2.4l-0.3,0.1l-0.8-0.6l-1-1.8l-1.1-1.5v-0.3l0.2-0.3l0.6-0.2l0.5-0.4l1.1-2.3l0.5-0.5h0.3l0.8-0.6l0.3-0.6
	l0.3-0.8l0.1-0.1l-0.4-0.1L492,685l-1.2-0.1l-1.2-0.3l-1.3-0.6l-0.3-0.5l0.1-1.2l0.8-4.8l-0.1-2l-0.5-3.2l0.1-1.7l0.3-0.8l0.4-0.5
	l0.8-0.6l0.9-0.3l0.5-0.4v-0.4l-0.2-0.2l-0.8-0.6l-0.2-0.5l-0.1-1.2l0.6-1.9l0.7-1.2l0.9-1l0.1-0.5l-1.2-2.3l-0.1-0.8l0.2-0.4
	l0.2-0.2l0.3,0.1l0.4,0.5l0.3,1l0.3,0.2l1.6,0.1l0.2,0.3l0.3,1.4l0.7,0.7l-0.1,0.8l-0.8,1l-0.2,0.8l-0.3,1.1l-0.1,0.8l0.5,0.8
	l0.3,0.6l-0.1,0.8l-0.5,1v0.8l0.3,0.6l1.5,1.2l1,1.3l1.1,2l0.1,1.1l-0.4,1.6l0.1,0.8h0.3l0.2-0.3l0.3-0.8l0.3-0.2l1.8-0.6l0.6-0.3
	l0.2-0.4l-0.1-1.1l0.2-0.2l0.3-0.2l0.9,0.6l0.4,0.1l0.3-0.1l0.6-0.3l0.7-0.7l1.8-0.9l0.5-0.4l0.2-0.4l-0.3-0.6l-0.6-0.3l-1.3-0.1
	l-0.6-0.3l-1.8-2.4l-0.3-0.6v-0.8l0.2-0.8l0.4-0.6l2-0.6l1.4-0.7l1.2,0.1l0.3-0.1l0.7-1.1l0.4-0.1l0.3,0.1l0.2,0.2l-0.1,0.8l0.2,0.3
	l1.4,0.9l0.3,0.5l0.3,1.1l0.4,0.1l0.2-0.3l-0.2-1.1l0.1-0.8l-1.2-3l0.1-2.2l0.6-1.8l0.2-0.2l0.3-0.1l0.2,0.7l-0.3,2l0.1,0.4l0.5,0.3
	l0.5,1.2h0.1l1.2-2.7l0.1-0.5l-0.6-0.8l-0.1-0.7l0.2-1.7l0.4-0.5l0.6-0.3h0.4l2.7,0.8l0.7,0.7l1.1,2.1l0.8,1h0.3l0.3-1.3l0.1-0.3
	l0.3-0.2l1,0.8l0.3-0.1l0.2-0.3v-0.8l0.3-0.6l0.1-0.3l-0.6-1.6l1.1-1.8l0.3-2.2l0.3-0.6l0.3,0.1l0.6,0.8l0.5,1.2l-0.1,0.8l-0.6,0.8
	v0.3l0.6,0.7l0.3,1l-0.4,2h0.1l1.8-1.2l4-3.2l1.4-0.8l0.8-0.6l1.1-1.8l1.2-1.5l2-3.9l1.9-2.8l1.1-1.2l2.2-2l1.1-1.2l1.3-0.9l2.5-2.6
	l2.9-2.6l0.7-1.3l0.7-2.7l0.3-0.7l0.5-0.5l0.9-0.4l0.4-0.5l1-1.8l0.9-2.1l0.6-0.9l0.9-1l1.5-2.3l2.3-2.3l0.3-0.6l1.6-3.4
	c0,0,0-0.5,0.2-1.1c0.2-0.8,0.4-1.7,0.4-1.7v-0.4l-0.3-0.6l-1.4-0.6l-0.7-0.7l-0.1-0.6l0.1-0.4l0.2-0.1l0.8,0.1l2.4,1.4l0.5,0.1
	l0.4-1.5l0.6-0.6l2.6-1.8l0.3-0.8l1-4.1l0.8-1.6V595l-0.8-1l-0.1-2.3l-0.4-0.5l-1.1-0.5l-0.4-0.5l-0.3-1l0.5-0.9l0.9-0.9l1.5-2.4
	l0.5-0.4l0.7-0.2l0.4,0.1l1,0.5l0.4,0.1h0.5l1.2-0.3l2.9-1.5l1.5-1.2l0.6-0.4l0.7-0.1l0.8,0.2h0.4l1.8-1.4l2.1-1l2.6-0.8l1.4-0.2
	l2.8,0.1l1.7-0.5l1.2-0.6l1.4-0.2h0.9l0.8,0.2l2.8,1.1l1.7,0.4l1.7,0.1l3,0.6l0.7-0.1l1.5-0.8l1.1-0.7l1.6-0.5l1-0.4l0.4-0.5
	l0.4-1.7l0.4-0.5l1.1-0.7l1.1-1.2l1.2-2.8l0.8-1.1l0.4-1.2l-0.3-0.6l-0.2-0.2l-1.1-0.4l-1.5-0.9l-0.4-0.5l-0.3-1l-0.2-2.6l-0.6-1.2
	l0.2-0.3l0.4,0.1l0.7,0.7l0.3,0.6l0.4,2.1l0.3,0.6l1.3,0.6l1.2,1.1l0.4,0.1l0.3-0.1l0.4-0.5l0.2-0.8v-0.8l-0.2-0.6l0.1-0.4l1.3-0.4
	l0.8-0.5l1.3-1l0.3-0.5l0.5-1l0.6-2l0.3,0.2l0.4,0.5l0.2,0.3v0.8l-1.1,1.9l-2.3,2.7l-0.5,1.5l-0.1,2l-0.3,0.8l-0.6,0.9l-1.2,1
	l-0.4,0.6l-0.1,1.7l-0.6,1l-0.4,0.5l-1.2,0.6l-0.5,0.5l-0.4,1l0.1,0.8l0.1,0.2l0.7,0.3l1.6,0.1l1.6,0.4l1,0.6l0.7,0.7l0.7,0.3h0.8
	l0.2-0.2l0.3-0.7l0.3-1.3l0.3-0.8l0.4-0.6l0.8-0.5l1.9-0.6h0.8l2.7,0.9l1.4,0.6l1.9,1.1l0.8,0.2l1.5-0.1l1.7,0.8l0.8,0.2h0.4
	l3.1-1.3l2.3-1.2l1-0.8l0.3-1.1l-0.8-1.8l-0.2-1.8l0.1-0.8l0.6-2.4l-0.3-1l-0.3-0.9l-0.6-0.8l-1-0.8l-0.7-1.1l-0.3-1v-1.1l0.4-1.7
	l0.3-0.7l0.5-0.9l0.8-0.6l2.6-1.2l0.5-0.4l0.2-0.3l1.4-3.5l0.5-2l0.2-1.3l-0.1-0.3l-0.6-0.3l-0.9,0.3l-0.6,0.3l-0.9,0.4h-0.8
	l-0.7-0.3l-0.4-0.5l-0.2-0.6l0.1-1.7l0.3-0.7l2-2.8l0.6-0.9l0.1-0.4l-0.1-0.3l-0.2-0.2l-0.3-0.1l-0.7,0.1l-1.9,1.3l-0.6,0.2
	l-1.7-0.2l-0.6-0.3l-0.7-0.7l-0.6-1.6l0.1-1.6l0.6-1.4l1.4-2.3l0.2-0.7l-0.1-1.1l-0.4-1l-1.1-1.1l-1.7-0.4l-0.3-0.1l-0.4-0.6
	l-0.1-0.7l0.6-2.3l0.1-1.7l-0.2-0.7l-0.8-1.4l-1.2-0.7l-2.1-0.5l-1.5-1l-0.8-1l-0.2-1l0.2-0.9l0.3-0.7l0.4-0.5l0.9-0.3l0.3,0.2
	l-0.3,2.4l0.3,1l0.5,0.5l0.6,0.3l3.1,1l1.2,0.6l0.3,0.6l0.2,0.7l-0.3,3.3l0.1,0.8l0.3,0.6l0.1,0.3l0.8,0.6l1.8,0.8l0.7,0.7l0.3,0.6
	l0.3,1.7l-0.2,1.8l-0.7,1.9l-1,1.9l-0.1,0.8l0.1,0.3l0.5,0.5l0.8,0.3l0.7,0.1l1.5-0.7l1.5-0.2l0.8,0.1l1.2,0.3l0.7,0.6l0.1,0.8
	l-0.4,0.7l-2.6,2.9l-0.3,1.2l0.1,0.7l0.3,0.6l0.8,0.2l1.2-0.1l1-0.3l1.2,0.2l0.8,0.7l0.2,1l-0.2,1.8l-1,3.6l-0.7,1.9l-0.5,1
	l-1.7,1.6l-0.8,1.1l-0.3,1.7l0.1,3.1l0.4,0.9l0.4,1.3l0.3,0.6l1.1,1.2l0.1,0.3l0.1,2.8l1.4,3.7l1.9,2.7l1.4,1l0.7,0.3l0.8,0.2
	l1.5-0.2l0.5,0.1l0.7,0.3l0.9,0.6l0.5,0.5l0.5,0.8l0.5,3.1l0.5,0.5h0.4l0.2-0.2l1.1-1.2l0.6-0.4l0.8-0.3l1.4-0.2l0.6-0.3l0.9-1.5
	l0.3-0.2l0.3-0.2l0.8,0.2l0.5,0.4l2.2,2.4l1.2,1.1l0.6,0.4l1.2,0.2l3-0.2l1.7-0.4l1.4-0.8l2.3-1.7l2.7-1.4l0.6-0.2l1.1-0.8l1.2-0.6
	l0.7-0.2l0.8,0.1l0.9-0.4l3.9-2.8l0.3-0.1h0.4l0.5,0.5l-1.8,2.3l-1.2,1.2l-0.9,0.5l-1.8,0.4l-0.9,0.4l-1.3,0.9l-2.8,1.1l-0.8,0.6
	l-1.5,1.8l-0.9,0.4l-1.5,1.1l-0.8,1.2l-0.3,1.7l0.3,0.6l0.9,0.6l0.1,0.3l-0.1,0.4l-0.5,0.4l-2.3,1.2l-1.8,1.5l-1.2-0.1l-1.3-0.2
	l-0.8-0.3l-2.7-0.5l-1-0.5l-1.3-1.4l-1-0.5l-1.2-0.1l-1.1,0.2l-0.6,0.3l-0.8,0.1l-0.8-0.2l-3.4-1.5l-0.4-0.1l-0.8,0.1l-0.9,0.4
	l-1.3,0.3l-1.8,0.2l-1.7-0.3l-2.2-0.8l-0.9-0.2l-2.5-0.1l-2.2-0.3l-1.4,0.2l-0.8-0.1l-0.6-0.3l-0.6-0.8l-2.2-0.5l-1-0.5l-1.4-1
	l-1.4-0.6l-0.8-0.1l-1.4,0.3l-1.9,0.1l-0.7,0.2l-1.9,0.7l-1.9,0.1l-1,0.2h-1.6l-1.2-0.3l-1.1-0.3l-0.8-0.6l-1.9-2.2l-0.9-0.6
	l-0.2,0.2l1.8,2.8l0.7,0.6l2.2,1.3l2,2.8l0.8,1l1.1,0.8l1.5,0.9l0.4,0.5l0.3,0.5l0.4,0.9l0.6,2.4l0.3,0.6l0.3-0.2l0.1-0.4l0.1-4
	l0.2-0.8l0.6-0.8l0.5-0.3h0.4l2.1,0.2l0.6-0.3h1.6l1.7,0.8l1.5,0.5l3.1,1.4l1.8,0.6l2.6,1.4l0.4,0.1l0.7-0.2l1.1-0.7h0.4l0.3,0.2
	l1.5-0.2l0.3,0.1l0.8,1l0.4,0.9l0.5,0.8l1.3,1.5l0.8,1.4l0.2,0.7l-0.2,0.3l-0.2,0.3l-1.7-0.1l-0.7,0.2l-0.6,0.2l-0.1,0.4l-0.2,0.8
	l-0.3,0.7l-1.4,0.8l-1.5,0.7l-3.1,0.6h-2.4l-2.2-0.3l-1.5,0.1l-0.6,0.2l-1.4,0.9l-1.8,0.8l-0.8,0.6l-0.2,0.7l0.6,0.8
	c0,0,0.4,0.3,0.6,0.5c0.1,0.1,0.2,0.2,0.2,0.2l0.6,1.1l0.2,0.2l1.1,0.4l1.6,0.2l2.2-0.3l1.3,0.1l0.7-0.1l0.2-0.7l-0.3-0.6
	c0,0-0.1-0.3-0.3-0.5h3.4c0.3,0.2,0.6,0.3,0.6,0.3l0.4,0.5l0.7,1.5l0.6,0.3l1.7,0.3l1,0.5l1.5,0.5l0.7-0.1l1-0.2l0.5,0.1l0.5,0.2
	l0.9,0.9l0.8,1l0.8,1l0.6,1.2l0.4,0.4l1.7,0.8l1.2,0.3l2.1,0.9l0.9,0.1l1-0.3l1.2,0.4l0.6-0.2l1.4-0.8h0.3l0.1,0.3l-0.1,0.4
	l-1.5,1.3l-0.1,0.4l0.9,1.8l0.1,1.5l0.3,1l0.4,0.5l1.7,0.3l3.2,1.2l5.1,1.6l7,1.5l1.2,0.1l0.9-0.3l1.1-1.4l1.2-0.4l0.8-0.1l1.2-0.6
	l0.7-0.1l1.5-0.7l0.7-0.2h0.3l2.1,0.3l0.9-0.5l1-0.1l1-0.4l1.5-1.1l2.1-0.4l2.8,0.1l2.2,0.8h0.4l1-0.2l0.5,0.1l0.9,0.5l0.2,0.3
	l0.8,0.2l0.8-0.1l1.3-0.8l0.7-0.2l0.8-0.1l2.4,0.1l1.8-0.2l0.9-0.5l0.4-0.6l0.2-0.7l-0.1-1.1l-0.7-1.1l0.1-0.2l0.2-0.2l2.7,0.8
	l2.4,2.2l0.8,0.2l0.7-0.1l1.3-0.8l2.3-1.7l1.1-0.7l0.2-0.3l-0.1-1.5l0.2-0.8l0.8-0.5l0.5-0.9l0.3-1.2l0.4-0.5l0.3,0.1v0.8l-0.3,0.6
	l-0.2,1.8l0.6,2.7l0.1,0.8l-0.3,0.8l-0.8,1l-0.1,0.3l0.1,0.3l0.2,0.3l0.3-0.1l1.8-1.3l0.6-0.3l0.4-0.1h0.3l0.9,0.6l2.4,1l0.4,0.4
	l0.1,0.3l-0.2,0.8l-0.5,0.6l-1.1,0.7l-0.3,0.6l0.3,0.1l0.8,0.2l0.4-0.2l0.9-1.5l0.6-0.3l3.1,0.9l0.6,0.8l0.2,1.4l1.3,1l0.9,1.3
	l0.6,0.3h0.8l1.3-0.9l0.8-0.1l2.1,1.2l0.3,0.1l0.3-0.1l0.2-0.3l-0.2-0.3l-1.2-1.9V630l0.4-0.7l0.4-0.5l0.6-0.3l2.5,0.2l0.2-0.2
	l0.1-0.3l-0.6-0.7l-1.1-0.4l-0.6-0.4l-0.1-0.6l0.3-0.8l0.7-0.7l0.9-0.4l0.2-0.2l0.4-1.1l0.8-0.5l0.2-0.2l0.4-1.1l0.3-0.2l0.4,0.1
	l0.9,0.5l0.4,0.6l1,2.4l1.1,1.6l0.7,1.5v0.8l-0.1,0.4l-0.8,0.6l-0.4,0.5l-0.1,0.4l0.1,2.3l0.6,1.2l0.8,0.6l0.2,0.3v0.4l-0.2,0.3
	l-1,0.8l-0.3,0.6l1.3,1.8l0.3,1.1l-0.1,0.4l-1.2,1.6l-0.3,0.8l0.1,0.3l0.2,0.3l0.8-0.1l1.2-1.7l0.6-0.3h0.8l1.9,0.6l3.1,0.4l1,0.6
	l0.7,0.6l0.3,0.5l0.1,0.4l-0.2,0.3l-0.2,0.2l-2.3,0.2l-1.3,0.9l-0.3,0.1l-0.8-0.1l-0.7,0.2l-0.1,0.2l-0.1,0.8l0.4,1.2l0.2,1.5
	l-0.1,0.8l-0.5,0.5l-1,0.2L772,651l-0.5-0.3l-1.1-1.2l-0.6-0.3l-0.4-0.1l-1,0.2l-2.7,1.2l-0.5,0.6l-0.2,1.2l-0.4,0.6l-0.6,0.2
	l-0.6,0.2l-1.6,0.1l-0.3-0.2l-1.1-0.8l-0.8-0.2l-0.5,0.3l-0.3,0.7l-0.3,0.2h-1.5l-1.8,0.8l-1.9,2.4l-1,1.1l-1,0.8l-3.2,2.2l-4.3,2.2
	l-1,0.3h-0.4l-0.7-0.3l-0.6-0.8l-0.5-0.3l-1.1-0.5l-0.6-0.3l-0.2-0.6l-0.2-0.8l-0.5-0.4l-0.4,0.5l-0.3,0.8l0.1,0.3l0.4,0.9l1,0.8
	l0.4,0.6v0.3l-0.2,0.3l-2.6,0.8l-3.8,2.3l-4.8,2.2l-4.9,2.6l-1,0.3l-2.7,1.8l-2.1,2l-2.3,1.9l-1,1.2v0.7l0.8,1l0.1,0.3l0.1,0.3
	l-0.6,1l-0.5,0.3h-0.3l-1.8-0.3l-1.1-0.4l-1.2-0.1l-0.5,0.4l-1.3,2.4l-1,0.9l-1.7,0.8L702,687l-0.9,0.5l-1.4,1.3l-3.2,2.1l-1.6,1.1
	l-0.9,0.9l-2.6,4.1l-0.7,2.3l0.2,0.6l1,1.3l0.3,0.6l-0.1,1.6l0.1,0.7l0.3,0.6l0.2,0.2l1.8,0.3c0,0,0.2,0.1,0.3,0.2
	c0.3,0.1,0.6,0.3,0.6,0.3l1.3,1.1l0.8,0.2l2.6-0.2l0.4,0.1l1.2,0.6l0.4,0.2l0.8-0.1l0.6-0.3l0.9-1.5l0.4-0.5l0.8-0.6l0.8-0.5
	l0.7-0.7l0.8-0.5l1.1-0.1l3,0.2l2.3-0.6l2-0.1l1.7,0.2l4.4,1.2l1.9,1.3l0.3,0.3c0.3,0.2,0.7,0.6,0.7,0.6l2.8,1.6l4,3.2l3.5,3.8
	l0.6,0.4l1.7,1.9l2,1.8l0.8,0.3l2,0.1l0.7,0.3l1.1,0.8l1,1.2l0.6,0.4l1.2,0.3l0.7-0.1l0.8-0.6l1-1.4l0.7-0.1l1.2,0.1l0.6-0.3l1.3-1
	l1.1-0.1l0.8,0.1l0.8,0.2l1.5,1l3.6,3l1.4,0.6l1.2,0.6l2.1,1.8l0.3,0.5l0.7,0.6l0.8,1.1l0.4,0.9l0.8,3.4l0.1,2.4l0.1,1l0.1,0.3
	l0.4,0.4l0.7,1l1,2.4l1,4.8v1.2l-0.8,2.8v1.2l-0.4,1.2l-0.2,0.3l-0.6,0.3l-1.8,0.2l-0.6,0.3l-0.4,0.5l-0.8,1.6l-0.3,1.8l-1,2.6v0.4
	l0.6,1.5c0,0,0,0.1,0.1,0.4c0.1,0.7,0.3,2.1,0.3,2.1l1,2.2l0.4,1.6v0.8l-0.6,2l-1.3,2l-0.3,1.2l0.2,0.6l0.4,0.5l0.3,0.2l1.6,0.1
	l0.4,0.1l0.9,0.6l0.1,0.3l-0.5,0.4l-1.1,0.3l-1.9,0.1l-1.4,0.3l-0.8-0.2l-2,0.6l-1.6-0.1l-0.5,0.9l-1.1,0.1l-0.7,1.2l-0.6,0.3h-0.3
	l-0.3-0.5l-0.5-0.4l-0.9-0.1l-0.2,0.7l0.1,0.3l1,1.3l1.4,1.5l2.9,2.2l1.1,1.2l0.9,0.5l1.7,0.7l2.6,1.4l0.8,0.2h0.3l2.1-1l0.8,0.1
	l1.1,0.8l1.4,2.1l0.8,1l0.1,0.3l-0.2,1.2l0.1,0.4l0.4,0.5l0.8,0.4l2.6,0.6l1,0.8l0.8,1l0.8,0.6l0.8,0.2l2.1-0.1l2.6,0.5l1-0.4
	l1.7-0.9l1.1-0.2l1.2,0.2l2.8,1l2.1,0.5l2.1-0.2l2.6-1.3l1.8-0.4l0.5-0.3l0.6-0.8l2.7-1.1l1-0.2l2.7-1.2l0.8-0.6l0.6-0.8l2-3.8
	l0.6-0.7l1.6-0.6l1.9-0.1l0.6-0.2l0.6-1.2l1-3l0.4-0.6l1-0.1l2.1,0.4h0.4l0.8-0.5l0.2-0.3l0.3-0.7l0.1-1.3l0.3-1.1l1.2-2.2l1.4-4.2
	l2-2.8l1.2-3.2l0.8-1.2l0.6-0.8l0.5-0.4l1.2-0.5c0,0,0.4-0.4,0.8-0.7c0.3-0.3,0.7-0.5,0.7-0.5l1.6-1.1l0.8-0.5l0.9-0.2l2.6-0.8
	l1.2-0.5l3.1-0.8l1.3-0.8l1.5-1.9l1.9-1.2l0.9-0.4l2.1-0.4l1.8-0.2l1.4,0.1l1.4,0.6h0.3l0.6-0.3l0.8-1l0.6-0.2l0.4,0.2l0.8,0.6
	l0.7,0.2h0.8l0.8-0.6l0.5-1l0.6-0.8l0.6-0.3l2.3-0.6l1.7,0.1l1,0.5l2.6,2.8l0.6,0.8l0.5,0.4l1.2,0.2h0.3l0.6-0.3l1-0.8l0.6-1.2
	l0.5-1.6l0.6-3.3l0.3-1.2l0.8-1.6l1.1-1.2l1.2-1l1.2-0.4l1.4-0.3l0.9-0.4l0.2-0.3l0.7-2.8l0.5-1l0.8-0.5l0.8-0.1l1.7,0.4h0.4l1.3-1
	l0.7,0.3l2.1,1.7l0.4,0.1l0.2-0.2l0.2-0.3l-0.1-0.7l-0.8-1.4l-0.1-0.3l0.1-0.7l0.3-0.7l0.5-0.5l0.8-0.5l3.1-0.2l0.5-0.4l0.2-0.3
	l-0.1-0.3l-0.6-0.4l-1.5-0.5l-0.7-0.6l-0.1-0.7l0.1-0.9l0.2-0.8l0.4-1.1l0.8-1.1l0.7-0.7l4-2.8l1.9-1.7l1-0.3l1.1,0l0.7-0.2l2.3-0.1
	l3.6,0.6l2.3,0.8l2.2,1.2l1.8,0.6l1,0.6l2.3,1.5l1.3,0.6l2.5,3.4l1.1,2.3l0.6,0.4l1.2,0.2l3.7-1.1l1.9-1l0.9,0.1l1,0.5l0.9,0.1
	l1-0.1l0.5-0.4l0.4-0.6l0.3-0.7l0.3-1.2l0.5-0.9l0.5-0.5l0.9-0.3h3.8l0.3,0.1l1.3,1.1l1.1,0.4l3.1,0.4h0.8l2.5,0.6h0.4l0.4-0.1
	l0.5-0.4l0.4-0.6l0.4-1.1l0.5-1l0.8-0.6l1-0.2l2.2-0.1l1.2,0.1l2.5-0.2l2.6-1.8l2.1-1l0.8-0.6l0.3-0.7l-0.1-0.8l-1.5-1.6l-1.4-2.1
	l-1.1-2.1l-0.1-1.8l0.1-3.7c0,0,0.1-0.5,0.2-1.1c0.1-0.5,0.2-1.1,0.2-1.1l0.4-1.1l0.3-1.2l-0.2-1.4v-0.8l0.1-0.8l0.4-0.5l0.3-0.1
	l2.7-0.7l0.8-0.5l0.2-0.3l-0.1-0.7l-1.2-1.6l-0.2-1.1l0.2-0.4l0.3-0.6l0.6-0.4l0.6-0.2l1.5-0.1h0.8l0.5,0.1l1.7,0.7l0.8,0.2l1.9-0.2
	l1.2-0.4l0.4-0.5l0.3-0.8l-0.3-3.3l-1.2-1.9l-0.4-0.9l-0.7-1.1l-0.6-0.4h-1.2l-2.2,1.9l-0.8,0.1l-0.4-0.1l-0.6-0.3l-1.4-1.7
	c-1-1.5-2.3-1.4-4.3-0.4c-1.9,1-2.8,0.8-5-0.4s-2.2-0.5-4,0.7c-1.7,1.2-0.3-1.9-0.3-2.2c0-0.4-2-0.3-3.1,0c-1.1,0.3-5.6,1.4-8.1,1.1
	c-2.5-0.3-2.4,1.1-4.2,2.2c-1.8,1.1-1.9,2.5-1.9,2.5l-1.1,3.2l-0.6,1.3l-0.9,1.1l-0.9,0.3l-0.7,0.1l-2.5-0.1l-2.2-0.8l-0.8-0.7
	l-2.6-1.3l-2-1.3l-0.8-1l-0.3-0.6l-0.3-1v-0.8l0.1-0.3l1-0.3l0.3-0.3l0.1-0.3l-0.2-0.6l-1.1-0.8l-0.9-0.1h-0.8l-0.6,0.4l-0.5,1
	l-0.4,3l-0.8,2.3l-0.8,1.1l-0.7,0.8l-0.8,0.6l-0.5,0.5l-0.1,0.4l0.1,0.7l-0.1,0.3l-0.8,0.6l-0.7,1.7l-0.2,0.3l-0.8,0.6l-1.2,0.6
	l-5.2,1.5l-4.3,2.2l-2.3,0.7l-1,0.2l-0.8,0.1l-1.2-0.3l-1-0.5l-1.6-1.2l-1.1-1.2l-1.3-0.3l-1.9-1l-4-3l-1.2-1.2l-3-4.2l-1.8-1.9
	l-1.8-2.3l-1.8-2.7l-1.9-2.5l-1-1.8l-1.1-1.6l-1.9-2.2l-2.5-3.3l-1.2-1.5l-1.5-2.2l-1.1-2.4l-0.6-0.8l-0.7-1.5l-0.9-1.3l-0.9-0.9
	l-0.6-0.8l-1.6-3.5l-1.5-2.5l-0.7-1.5l-1.4-4.2l-1.2-2.6l-1.5-2l-1.2-2.3l-0.4-1l-0.5-3.2l-0.5-2l-2-4.7l-0.6-3.5l-0.5-6l-0.9-2.5
	l-0.2-1v-1.6l0.5-1.1l0.6-0.8l1-0.8l1-0.3l0.8-0.5l0.9-1l0.4-2.6l0.2-0.3l0.2-0.3l0.3-0.1h0.3l0.5,0.6l0.5,1.9l0.3,0.2l0.4,0.1
	l0.8-0.1l2.3-1.2l4-1.2l0.6-0.3l1.4-1.1l2.2-2.4l1.7-1.5l0.9-1.5l1-2.6l0.7-1.2l1.2-1.2c0,0,0.8-1.1,1.2-1.7h4.8c0,0.3,0,0.5,0,0.5
	v1.6l0.3,1l0.5,0.4l1.3,0.3l0.9,0.5h0.4l0.3-0.2l0.9-1.5l0.7-0.7l0.5,0.2l-0.1,0.8l-0.6,2l-0.3,0.6l-0.7,0.8l-1.8,1.2l-0.2,0.3
	l-0.2,0.3l-0.1,2l-1.1,1.2l-0.2,0.5l-1.1,2.4l-1.5,2.3l-1,2.5l-0.3,0.6l-0.7,0.7l-0.8,0.6l-1.2,0.6l-2.9,0.9l-4,1.5l-1,0.8v0.4
	l0.7,0.7l-0.5,0.5l-1.6,0.5l-0.6,0.4l-0.3,1.1l-1.4,0.9l-0.4,0.5l-0.1,0.8l0.2,0.2l0.6,0.4l0.8,0.1l0.6-0.2l1.6-1.1l0.4-0.1l1.1-0.6
	l2.2-1.3l1.8-0.8l1.1-0.6l2.1-1.5l1-1l1.8-2.5l1.2-2.8l2.4-4.8l1.2-2l1.2-1.7l4.2-8l1.1-1.8c0,0,0.2-0.2,0.3-0.4
	c0.2-0.3,0.6-0.6,0.6-0.6l1.5-1.2l1.6-1.7l1-1.4l1-1.9l1.1-1.3l1.1-0.6l1.9-0.5l1.2-0.5l2.6-1.5l0.4-0.4l1.7-1.1l0.4-0.5l1.2-1
	l2-3.2l1.1-1.3l1.4-2.4l1.8-2l1-0.8l1.2-0.6l0.5-0.8l1.5-1.2l1.8-0.8l4.2-2.5l1.1-0.2h1.2l2.9-0.5l2.2-0.2l1.5-0.6l1.4-0.8l0.6-0.2
	l0.8,0.1l2,1l0.9,0.1l0.8-0.1l1-0.3l2.2-1l0.7-0.1l0.8,0.1l1,0.5l0.2,0.2l0.8,1.4l1.1,1.2l0.1,0.8l-0.1,1.2l0.2,0.6l0.4,0.1l0.1-0.3
	l0.3-1.3l0.4-0.6l0.2-0.1l0.4,0.2l0.1,0.2l0.1,0.8l-0.2,0.8l0.2,0.1l0.4-0.7l0.1-2.1l0.8-1.6l0.9-1.5l1.5-1.8l1.1-1.7l1.5-1.7
	l2.7-1.8l1.5-0.6l1.9-0.6l1.4-0.8l1.2-1l0.9-0.4h3.1l1.1-0.2l0.5-0.4l0.6-1.3l0.8-0.6l1.2,0.1l1.1,0.3l3.2-0.6h0.8l2.2,0.5l0.8,0.2
	l1.2,1.1l1,1.2l1.1,0.8l0.7,1l0.2,0.6l0.1,0.7l-0.3,2.2l-0.3,1.2l-0.7,1.2l-0.2,0.8v0.8l-0.3,0.7l-0.3,0.2l-0.4-0.1l-1.2-0.5
	l0.6,0.8l0.6,0.3l0.2,0.2l0.8-0.1l0.6-0.8l1.7-6l0.5-1.4l0.5-2.5l0.7-1.9l0.9-2l0.1-0.8l-0.7-1.1v-0.3l0.1-0.3l0.3-0.2l0.8,0.1
	l1-0.4l0.4-0.5l0.4-1.1l0.5-0.9l0.5-0.5l1.4-0.8l1.2-0.4l1.3-1.5l0.8-0.6l1.2-0.6l1.5-1.2l3.7-2l2.7-1.1l1.2-0.6l1-0.8l1.5-1.3
	l1.1-0.6l1.9-0.7l1.1-0.1l0.7,0.2l2.2,1.7l2.1,0.8l0.2,0.3l0.1,0.7l-0.6,1.4v0.4l0.2,0.2l0.3,0.1l0.3-0.2l1.5-2.3l2.6-5.8l0.3-0.6
	l1.2-1.2l2.3-4.4l1.9-2.8l1.5-1.8l1.5-2.8l1-0.8l0.6-0.2l0.8-0.1l2,0.1h0.4l2.7,0.8l3.5-0.1l2.9,0.3l1.9-0.7l2.1-1l2.2-1.3l1.6-0.6
	l2.5-0.3l3,0.9l0.3-0.1l1.3-1h0.6l2.2,0.8l1.7,0.3l1.2-0.6l0.9-1.1l0.6-0.2h0.4l1.9,1.4l2.2,1.2l0.3,0.6l-0.1,0.9l-0.2,0.7l-0.9,1
	l-0.1,0.3l-0.2,0.8l0.4,0.1l0.5-0.3l1.1-1.2l0.9-1.7l1-1.3l2-3.2l0.9-1l0.3-0.2c0-0.1-0.8-5.5-0.8-8.3c0-2.8,2-4.7,4.5-6.1
	c2.5-1.4,0.8-3.9,0.5-5.3c-0.3-1.4-2.2-0.3-5.5,0c-3.3,0.3,2.2-8.6,3-11.4c0.8-2.8-0.5-12.2-0.5-15c0-1.4-0.6-3.3,3.3-3.6
	c1.9-0.1,2.8-0.5,3.1-1.7c0.3-1.1,0.6-1.4,3.1-1.7s12.2-3.9,12.5-5c0.3-1.1,0.5-1.7,1.7-1.7c1.1,0,4.2-1.1,5.6-1.9
	c0.6-0.3,1.1-2.4,1.5-5c0.7-3.8,1.3-8.5,1.8-10c0.8-2.5,1.7-2.8,4.2-3.3c2.5-0.6,6.1-1.6,8.6-1.1c2.5,0.6,15.6-0.6,17.5-1.1
	c1.9-0.6,0.3-1.1,3.9,0.6c3.6,1.7,6.4,1.4,7.8,0.3c1.4-1.1,3.3-1.9,8.9-2.8c5.6-0.8,5.8,0.6,10.3,0.3c4.4-0.3,3.9-2,3.6-3.9
	c-0.3-1.9,0-5.3,0.3-7.2c0.3-1.9-1.6-4.2-3-5.8c-1.4-1.7,2.2-2.5,3.6-3.6c1.4-1.1,0.6-2,0-5.6c0-0.2-0.1-0.4-0.1-0.6L378.6,395.9
	L378.6,395.9z M86.3,416c-0.2,0.2-0.4,0.5-0.6,0.8C85.9,416.5,86.1,416.2,86.3,416z M805.1,607.1l1.1,0.5l0.9,0.6l1.2,1.2l2.3,2.8
	l0.3,0.5l1.6,4.4l0.3,0.6l1.8,1l0.8,6.2l0.4,0.5l0.6-0.3l0.4-1l-0.2-6.6l-1.6-0.4l-0.3-0.2l-0.3-0.6l0.2-0.5l1.5-2.2h0.7l1.2,1.5
	l2.6,0.8l0.3,0.2l0.5,0.4l0.6,1.1l0.5,0.5l2.9,1.1l1.6,1.2l0.4,0.1l2.7-1.8l0.6-2.4l1.1-0.8l0.5,0.4l1,1.7l0.6,0.8l0.3,0.6l-0.3,1.1
	l-1.2,5.4l-2.8-2.6l-1.2,2.2l-0.3-0.1l-0.2-0.7l0.6-1.4v-0.8l-0.3-0.2h-0.3l-0.6,0.3l-0.7,1.2l-1.6,1.7l-0.1,2.4l2.1,2.8l0.2,0.3
	l-0.2,0.6l-2.7-1.1l-1.5,2.3l-0.2,0.4l0.2,1.1l0.9,0.5l2.8-0.4l0.8,0.2l0.3,0.5l0.2,0.8l-0.5,1.5l-0.1,0.8l0.7,0.7l0.6-0.2l0.2-0.2
	l0.6-1.9l0.4-0.6l0.6-0.2l2.8,0.3l1.4-0.3l0.4-0.5l0.6-1.4l2.6-6.7l0.2-0.3l-0.2-2.3l-0.6-1.5l-0.2-0.6l-0.2-3.8l0.2-0.6l5.1-1.6
	l2.2,1.1l3.5,3l0.6,2l0.4,2.5l-0.2,0.2l-0.3,0.2l-0.8-0.1l-0.6-0.3l-1.9-1.9l-1,0.3l-2.4,1.2l-1.4,0.3l-0.3,0.6l0.3,0.6l1.8,0.7
	l0.8,2.7l2.7,2.4l0.7,1l0.7-0.1l0.4-0.6l0.2-1.7l0.2-0.4l0.3-0.2h0.2l0.3,0.2l1.5,2.6l0.5,1.2l0.5,5.5l0.2,1l1,1.2l0.4,4.2l0.2,1.5
	l-1.3,4.2l0.2,0.7l0.6,0.3h0.3l0.3,0l1.4-1.4l0.8-2.3l0.5-0.4l0.8,0l1.4,1l1.2,2.2l0.7,2.7l1.6,3.2l2,2.6l2.9,6.2l2.3,2.1l0.5,1.2
	l2.6,3.7l2.2,2.8l0.8,1.1l3.9,4.7l1.2,1.4l3.2,4.1l3.9,5.9l2.3,1.5l1.7,2.8l0.5,0.4l1.2,0.3l0.4,0.3l1.3,1.8l0.6,0.4l0.3,0.2h1.5
	l0.5,0.5l1,0.4l0.9,0.6l0.2,0.6l-5,2.7l-0.6-0.3l-0.5-0.4l-0.9-1.4l-4-1.4l-1.9-1l-2.5-0.6l-1.1-0.4l-4.1-1.9l-3.5,0.8l-0.6-0.7
	l-3.9-2.8l-0.3-0.6l-0.1-1.1l-0.4-0.9l-2.2-2l-0.2-0.3l0.1-0.7l0.5-0.6l3.8-1.8l1-1.3l0.3-1.1l-2.4-8.1l-2.4-4.3l-0.1-0.3l-0.5-0.5
	l-2.9-1.9l-0.3-0.6l-1.5-3.3l-0.7-0.2h-0.4l-3.1,0.6L859,666l-3-2.7l-1.3-0.2l-0.2-0.3l0.4-0.6l2-2.6l-0.2-0.3l-0.7,0.1l-4.2,2.4
	l-2.4-1l-1.6-0.2l-1.5,0.6l-0.3-0.1l0.1-0.4l0.2-0.3l1.7-2l0.3-5.1l-0.2-0.6l-3.1,0.8l-2.8,1.7l-0.7,0.1l-0.2-0.1l0.3-1.5l0.7-0.7
	l0.3-0.7l0.3-2.8l1.2-0.7l3.5-0.7l0.3,0.2l0.3-0.3l0.2-0.8l-0.2-2.2l-0.9-1l-0.9,1.7l-0.7,0.6l-5.7,2.5l-0.7,0.7l-1.7,2.7l-2.7,2.8
	l-1.5,0.2l-1.3,1.5l-1.9,0.5l-1.5,0.6h-0.4l-0.2-0.3l0.3-0.6l1-0.8l1.9-1.3l0.3-1.9l0.6-0.8l1.6-1.7l0.2-0.3l0.1-2l0.5-0.4l2.3-0.6
	l0.8-0.6l2.3-5.8l-0.2-0.7l-0.2-0.2l-1.9-1l-3.8-1.2h-0.4l-0.3,0.1l0.1,0.3l2.4,3.1l0.2,0.7l-0.3,0.6l-0.2,0.3l-0.4,0.1l-1.2-0.3
	H833l-0.5,0.3l-0.5,1l-1,2.6l-0.3,0.6l-0.6,0.3l-0.8-0.2l-0.8-1.1l-0.6-1.2l-0.1-1.4l0.5-1.9l-0.8-0.1l-1.8,0.8l-0.3,0.2l-0.3,0.6
	l-0.3,1.8v0.8l0.3,2.5l-0.1,0.8l-0.6,0.1l-0.4-1.7l0.2-1.3l-0.1-0.4h-0.3l-0.3,0.2l-0.7,1.2l-0.3,0.2l-0.2-0.2l0.2-1.3l-0.1-0.4
	l-0.1-0.3l-1,1.3l-0.6,0.3l-0.2-0.3l0.1-0.3l1.2-3.4l1.7-0.6l0.3-0.7l0.5-0.9l-0.8-1.8l-2.4-1l-0.8-0.6v-0.4l0.6-0.3l1-0.2v-0.3
	l-1.5-2.4l-0.7-0.7l-0.8-0.1l-0.3,0.1l-0.2,0.2l-0.3,0.8l-0.3,1.7l-0.5,0.4l-1.2-0.2l-1.4-1l0.2-3.2l-0.2-0.7l-0.6-0.2l-0.2,0.3
	l-0.6,1.5l-1.1,2.3l-1.7,0.3l-0.2-0.2v-0.8l0.6-0.8l0.2-0.4l-0.1-0.4l-0.4-0.4l-3.8-0.5l-0.8,0.1l-0.4-0.1l-2.8-1.1l0.1,0.4l0.1,0.2
	l1,0.9l0.8,1.1l3.2,1.7l0.6,0.4l0.5,0.8l0.6,3.5l-0.1,0.8l-0.2,0.4l-0.8,0.6l-2.6,0.7l-0.6-0.1l-0.5-0.5l-1.8-3l0.1-0.4l0.3-0.1
	l1.4,0.6l0.7-0.1l1.2-2.2l-0.2-0.3l-1.4-0.9l-4.4-3.7l-2.2-1.9l-1.5-1.8l-0.7-0.7l-4.9-0.7l-0.8,0.6l-0.1,0.4l0.1,0.7l0.4,0.5
	l0.8,0.2h1.6l0.9,0.2l0.2,0.2l-0.2,0.8l-1.4,1.7l1.1,1.2l0.3,0.6l-0.1,0.4l-0.8,0.7l-0.6,0.2l-0.8-0.1l-0.8-0.6L791,633l-0.6-1.4
	L790,631l-1.5-0.1l-1.2,1.6l-0.7,0.1l-0.5,0.5h-0.3l-0.2-0.2l0.2-0.8v-0.3l-0.2-0.8l1.2-1.1l-0.1-0.8l-0.1-0.3l-1.7-1.5l-1.4-1.7
	l-0.1-0.4l0.2-0.3l0.8-1.9l-0.6-2.3l-0.5-0.4l-1.2-0.3l-1.2-0.8l-0.3,0.2l-0.1,4.7l-0.6,0.8h-0.8l-1-1.2l-2.8-1.5l-1.7-4.2l-0.2-0.3
	l-0.7-2.6l0.7,0.2l1,0.5h0.4l1-2.4l0.2-0.3l1.3-0.2l0.7-0.8l0.3-0.1l0.7,0.2l1.6,1.7l3.2,0.8l0.9-0.4l0.6-0.8l0.2-0.2l0.4,0.2l0.9,1
	l0.5,0.3l0.8,0.1l2.8,0.1l0.6,0.4l0.5,0.5l0.4,0.8l1.4,3.1l1.9,1.8l0.8,1.5l0.3,0.1l0.3-0.2l1-2l0.7,0.1l0.8,1.8l0.3,0.6l0.3,0.2
	h0.4l3.1-0.3l-2.6-4.1l-0.7-0.3l-0.9-1.5h0.3l1,0.4h0.4l0.4-0.4h2.8l-0.1,3.9h0.3l2.4-2.6v-1.8l-0.8-0.2l-0.3-0.2l-2.3-3.1l-0.2-0.7
	l0.3-4.9l0.3-0.1L805.1,607.1L805.1,607.1L805.1,607.1z"/>
</svg>
