<?xml version="1.0" encoding="utf-8"?>
<!-- Generator: Adobe Illustrator 26.5.0, SVG Export Plug-In . SVG Version: 6.00 Build 0)  -->
<svg version="1.1" id="Слой_1" xmlns="http://www.w3.org/2000/svg" xmlns:xlink="http://www.w3.org/1999/xlink" x="0px" y="0px"
	 viewBox="0 0 469 377" style="enable-background:new 0 0 469 377;" xml:space="preserve">
<style type="text/css">
	.st0{clip-path:url(#SVGID_00000067209645604143689670000002316473070920825764_);}
	.st1{fill:#E0E0E0;}
	.st2{fill:#EFEFEF;}
	.st3{fill:#BDBDBD;}
	.st4{fill:#FFFFFF;}
	.st5{fill:#424242;}
	.st6{fill:#222221;}
	.st7{fill:#498EAD;}
	.st8{fill:#616161;}
	.st9{fill:#767676;}
	.st10{opacity:0.5;fill:#424242;enable-background:new    ;}
	.st11{fill:#55AEA8;}
	.st12{fill:#C8C8C8;}
	.st13{fill:#303030;}
	.st14{fill-rule:evenodd;clip-rule:evenodd;fill:#55AEA8;}
</style>
<g>
	<defs>
		<rect id="SVGID_1_" width="469" height="377"/>
	</defs>
	<clipPath id="SVGID_00000175310662927729380510000004688664994012204976_">
		<use xlink:href="#SVGID_1_"  style="overflow:visible;"/>
	</clipPath>
	<g style="clip-path:url(#SVGID_00000175310662927729380510000004688664994012204976_);">
		<path class="st1" d="M90.3,207.5c11.9-7.8,168.1-118.1,172.5-121.3c2.4-1.7,4.5-1.4,8.5,0.6l110.2,56.8
			c6.1,3.4,10.8,10.9,10.8,17.1V175c0,3.5-0.6,3.7-12.9,13c-9.9,7.5-156.1,122.2-158.3,123.6C218.9,313,90.3,207.5,90.3,207.5z"/>
		<path class="st2" d="M259.7,88.5c-22.9,16.2-158.3,111.8-169.4,119c0,0,61.8,50.7,100.5,81.4l23.9-18.1L259.7,88.5z"/>
		<path class="st3" d="M209,293.9l182.5-138.2c-1.1-3.1-3-6.2-5.5-8.6L212.8,278.2L209,293.9z"/>
		<path class="st2" d="M212.8,278.2L386,147c-1.2-1.2-2.5-2.2-3.9-3.1L214.7,270.8L212.8,278.2z"/>
		<path class="st1" d="M207,301.6c8.3,6.4,13.7,10.3,14.1,10.1c2.3-1.4,148.4-116.1,158.3-123.6c12.3-9.2,12.9-9.5,12.9-13v-14.3
			c0-0.9-0.1-1.8-0.3-2.8L208,297.4L207,301.6z"/>
		<path class="st2" d="M209,293.9l-0.9,3.5l184-139.4c-0.2-0.8-0.4-1.5-0.6-2.3L209,293.9z"/>
		<path class="st4" d="M217.3,312.6c-2,0-4-0.6-6.1-1.7L97.5,247.7c-6.1-3.4-10.8-10.9-10.8-17.1V215c0-5.2,3.4-8.9,8.2-8.9
			c2,0,4,0.6,6.1,1.7L214.6,271c6.1,3.4,10.8,10.9,10.8,17.1v15.6C225.5,309,222.1,312.6,217.3,312.6z"/>
		<path class="st5" d="M221.9,303.8c0,5-4,6.8-9,4L99.3,244.5c-5-2.7-9-9-9-14V215c0-5,4-6.8,9-4l113.6,63.2c5,2.7,9,9,9,14V303.8z"
			/>
		<path class="st6" d="M204,288.7c0,1-0.8,1.3-1.8,0.8l-20.3-11.3c-1-0.5-1.8-1.8-1.8-2.8v-1c0-1,0.8-1.3,1.8-0.8l20.3,11.3
			c1,0.5,1.8,1.8,1.8,2.8V288.7z"/>
		<path class="st6" d="M94.2,233.7v3.8c0,1,0.8,2.5,1.8,3l16.7,9.7c1,0.5,1.3,0,1.9-0.8c0.5-0.6,1.6-0.9,4.1,0.4
			c1.9,1,71.5,40.3,72.2,40.6c1.3,0.7,1.2,1.6,1.2,2.3c0,1,0.8,2.2,1.8,2.8l20.3,11.3c1,0.5,1.8,0.2,1.8-0.8v-2.9L94.2,233.7z"/>
		<path class="st7" d="M204,288.7c0,1-0.8,1.3-1.8,0.8l-20.3-11.3c-1-0.5-1.8-1.8-1.8-2.8L204,288.7z"/>
		<path class="st6" d="M121.1,238.9c-0.2,0.4-0.9,0.4-1.4,0c-0.5-0.4-0.8-0.9-0.5-1.3c0.2-0.4,0.9-0.4,1.4,0
			C121.1,238,121.3,238.6,121.1,238.9z"/>
		<path class="st8" d="M109.4,296.8l3.5-8.2l23-15.7l19.2,10.7l3.3,5v10.5l-19.6,14.6l-14.2,3.5L109.4,296.8z"/>
		<path class="st5" d="M117.5,307.6l7.1,9.6l14.2-3.5l19.6-14.6v-10.5l-20.8,14.5L117.5,307.6z"/>
		<path class="st9" d="M155.1,283.6c-1.5,1.3-2.9,2.5-4.4,3.8c-1.5,1.3-3,2.5-4.5,3.7c-3,2.4-6,4.9-9.1,7.2l-0.1,0.1h-0.2l-7.2,2
			c-2.4,0.6-4.8,1.3-7.2,1.9l-0.3,0.1l-0.3-0.1l-4.7-2.4l-4.6-2.5l-0.5-0.3l0.2-0.4c0.6-1.3,1.1-2.7,1.7-4c0.6-1.3,1.1-2.7,1.8-4
			c-0.3,1.4-0.8,2.8-1.1,4.2c-0.4,1.4-0.8,2.8-1.2,4.2l-0.3-0.7l4.8,2.2l4.7,2.3l-0.6-0.1c2.4-0.7,4.8-1.3,7.2-2l7.2-1.9l-0.3,0.1
			c3.1-2.3,6.2-4.6,9.4-6.8c1.6-1.1,3.2-2.2,4.8-3.3C151.9,285.8,153.5,284.7,155.1,283.6z"/>
		<path class="st6" d="M124.6,317.2v-12.7l-15.2-7.7l-16.7,12v12.6l15.3,7.7L124.6,317.2z"/>
		<path class="st10" d="M108,329.1l-15.3-7.7v-12.6l15.3,7.7V329.1z"/>
		<path class="st10" d="M124.6,304.5l-15.2-7.7l-16.7,12l15.3,7.7L124.6,304.5z"/>
		<path class="st5" d="M110.7,319.7c0,0.5,0.4,0.9,0.9,0.9s0.9-0.4,0.9-0.9v-5.8c0-0.3-0.2-0.6-0.5-0.8l-14.9-7.5l-1.6,1.1l15.2,7.7
			V319.7z"/>
		<path class="st5" d="M114.2,317.2c0,0.5,0.4,0.9,0.9,0.9s0.9-0.4,0.9-0.9v-5.8c0-0.3-0.2-0.6-0.5-0.8l-14.8-7.5l-1.6,1.1l15.2,7.7
			v5.3H114.2z"/>
		<path class="st5" d="M117.8,314.6c0,0.5,0.4,0.9,0.9,0.9s0.9-0.4,0.9-0.9v-5.8c0-0.3-0.2-0.6-0.5-0.8l-14.8-7.5l-1.6,1.1l15.2,7.7
			L117.8,314.6L117.8,314.6z"/>
		<path class="st5" d="M121.8,311.8c0,0.5,0.4,0.9,0.9,0.9s0.9-0.4,0.9-0.9V306c0-0.3-0.2-0.6-0.5-0.8l-14.9-7.5l-1.6,1.1l15.2,7.7
			V311.8z"/>
		<path class="st5" d="M438.2,225.1c-14.6-11-53.4-15.9-77.1-0.1c-19.5,13-122.3,91.8-182.3,138.9c4.7,0,9.3,0,14,0
			c60.6-47.4,154.7-119.4,173.1-131.8c21.8-14.6,56.3-8.3,67.1-0.1c21.7,16.4,14.8,29.2,12.1,32.7c-10,13.1-60.1,50.3-60.6,50.7
			c-1.9,1.4-2.3,4.1-0.9,6c1.4,1.9,4.1,2.3,6,0.9c2.1-1.5,51.6-38.3,62.3-52.4C462.1,256.4,456.9,239.3,438.2,225.1z"/>
		<path class="st5" d="M98.1,315.3c-1.7,1.1-41.9,26.5-51.2,45.1c-0.6,1.2-1.1,2.3-1.5,3.5c3.1,0,6.3,0,9.4,0
			c7.2-13.7,37-34.4,47.9-41.3C104.7,321.3,100.1,314,98.1,315.3z"/>
		<path class="st6" d="M380.6,334.3c-3.6,1.1-7.6-0.1-9.9-3.3c-3-4-2.2-9.8,1.8-12.8l22.7-17c8.9-6,18,9.7,11,14.6l-22.7,17
			C382.6,333.5,381.6,334,380.6,334.3z"/>
		<path class="st5" d="M396.2,303.2c2.2,0.4,4.4,2.1,6,4.4c0.2,0.2,0.4,0.3,0.7,0.2c0.1,0,0.1,0,0.2-0.1c0.3-0.2,0.4-0.6,0.2-0.9
			c-1.8-2.6-4.2-4.4-6.8-4.9c-0.7-0.1-1.5-0.2-2.2-0.1l-3.2,2.4C392.6,303.2,394.4,302.9,396.2,303.2z"/>
		<path class="st5" d="M405.5,305.2c-0.2-0.3-0.6-0.4-0.9-0.2c-0.3,0.2-0.4,0.6-0.2,0.9c2.4,3.7,3.2,8.9-0.3,11.4
			c-0.1,0.1-0.1,0.1-0.2,0.2l2.2-1.7c0.5-0.4,0.9-0.8,1.2-1.2C408.3,311.6,407.3,308,405.5,305.2z"/>
		<path class="st5" d="M391.6,306.7c2.2,0.4,4.4,2.1,6,4.4c0.2,0.2,0.4,0.3,0.7,0.3c0.1,0,0.1,0,0.2-0.1c0.3-0.2,0.4-0.6,0.2-0.9
			c-1.8-2.6-4.2-4.4-6.8-4.9c-0.8-0.1-1.5-0.2-2.3-0.1l-3.4,2.5C387.9,306.7,389.8,306.3,391.6,306.7z"/>
		<path class="st5" d="M401.2,308.5c-0.2-0.3-0.6-0.4-0.9-0.2c-0.3,0.2-0.4,0.6-0.2,0.9c2.4,3.7,3.2,8.9-0.3,11.4c0,0,0,0-0.1,0.1
			l3.3-2.5C404,315.1,403.1,311.3,401.2,308.5z"/>
		<path class="st5" d="M387.4,309.8c2.2,0.4,4.4,2.1,6,4.4c0.2,0.2,0.4,0.3,0.7,0.2c0.1,0,0.1,0,0.2-0.1c0.3-0.2,0.4-0.6,0.2-0.9
			c-1.8-2.6-4.2-4.4-6.8-4.9c-0.8-0.2-1.5-0.2-2.3-0.1L382,311h0.1C383.7,309.9,385.5,309.5,387.4,309.8z"/>
		<path class="st5" d="M396.7,311.8c-0.2-0.3-0.6-0.4-0.9-0.2c-0.3,0.2-0.4,0.6-0.2,0.9c2.4,3.7,3.2,8.9-0.3,11.4c0,0,0,0-0.1,0.1
			l3.3-2.5C399.5,318.5,398.6,314.7,396.7,311.8z"/>
		<path class="st5" d="M382.8,313.3c2.2,0.4,4.4,2.1,6,4.4c0.2,0.2,0.4,0.3,0.7,0.2c0.1,0,0.1,0,0.2-0.1c0.3-0.2,0.4-0.6,0.2-0.9
			c-1.8-2.6-4.2-4.4-6.8-4.9c-0.8-0.2-1.6-0.2-2.4-0.1l-3.5,2.6c0.1,0,0.1,0,0.2-0.1C379.2,313.4,381,313,382.8,313.3z"/>
		<path class="st5" d="M392.4,315.1c-0.2-0.3-0.6-0.4-0.9-0.2c-0.3,0.2-0.4,0.6-0.2,0.9c2.3,3.5,3.1,8.4,0.2,11l2.8-2.1
			C395.2,321.7,394.3,318,392.4,315.1z"/>
		<path class="st5" d="M395.8,317.3l-15.1-8.4c-5,3.3-14.4,3.3-14.4,3.3l-32.8,25.5l9.3,5.9l-9.3,7.3l26.5,16.7l33.3-27.2
			c-1.1-6.3,2.4-9.8,2.4-9.8L395.8,317.3L395.8,317.3z"/>
		<path class="st8" d="M333.5,337.7l32.8-25.5c0,0,9.4,0,14.4-3.3l15.1,8.4c0,0-3.6,3.6-2.4,9.8l-33.3,27.2L333.5,337.7z"/>
		<path class="st6" d="M360.1,367.5l-26.6-16.7v-13.1l26.6,16.7V367.5z"/>
		<path class="st8" d="M393.4,327.1c0,0,0,0.2,0.1,0.6c0,0.4,0.1,0.9,0.2,1.5c0.1,1.2,0.2,2.9,0.2,4.5c0,1.6-0.1,3.3-0.2,4.5
			c0,0.6-0.1,1.1-0.2,1.5c0,0.4-0.1,0.6-0.1,0.6s0-0.2-0.1-0.6c0-0.4-0.1-0.9-0.2-1.5c-0.1-1.2-0.2-2.9-0.2-4.5
			c0-1.6,0.1-3.3,0.2-4.5c0-0.6,0.1-1.1,0.2-1.5C393.4,327.3,393.4,327.1,393.4,327.1z"/>
		<path class="st9" d="M393.4,327.1l-33.3,27.3l-26.6-16.7L393.4,327.1z"/>
		<path class="st5" d="M360.7,350.7c-0.2,0-0.3,0-0.5-0.1l-18.9-12.3c-0.2-0.1-0.4-0.4-0.4-0.7c0-0.3,0.1-0.5,0.3-0.7l21.5-16
			c0.3-0.2,0.6-0.2,0.9-0.1l18.9,10.8c0.2,0.1,0.4,0.4,0.4,0.7c0,0.3-0.1,0.5-0.3,0.7l-21.5,17.5C361,350.7,360.9,350.7,360.7,350.7
			z M343.2,337.5l17.4,11.4l20.1-16.4l-17.4-9.9L343.2,337.5z"/>
		<path class="st1" d="M354.8,357l-20-11.1c-0.1-0.1-0.3-0.1-0.4-0.1c-0.2,0-0.3,0-0.4,0.1c-0.9,0.7-14.7,11.5-15.4,11.7
			c0,0,19.9,20.2,20.8,19.8s15-11.3,15.4-11.7c0.3-0.2,0.4-0.4,0.4-0.7v-7.2C355.2,357.4,355,357.1,354.8,357z"/>
		<path class="st3" d="M355.2,357.7c0-0.3-0.2-0.6-0.4-0.8l-0.7-0.4l-20.5,15.8c0.7,0.7,1.4,1.4,2.1,1.9l19.6-15.1L355.2,357.7
			L355.2,357.7z"/>
		<path class="st2" d="M335.2,373.5l20-15.3v-0.5c0-0.2-0.1-0.4-0.2-0.5l-20.5,15.7C334.8,373.1,335,373.3,335.2,373.5z"/>
		<path class="st4" d="M339,377.5c-0.1,0-0.3,0-0.4-0.1l-20-11.1c-0.3-0.2-0.4-0.4-0.4-0.7v-7.2c0-0.3,0.2-0.6,0.4-0.7
			c0.1-0.1,0.3-0.1,0.4-0.1s0.3,0,0.4,0.1l20,11.1c0.3,0.2,0.4,0.4,0.4,0.7v7.2c0,0.3-0.2,0.6-0.4,0.7
			C339.3,377.5,339.1,377.5,339,377.5z"/>
		<path class="st11" d="M339,369.5l-20-11.2v4l20,10.9V369.5z"/>
		<path class="st6" d="M319,362.3v3.2l20,11.1v-3.4L319,362.3z"/>
		<path class="st12" d="M333.4,355.6l-3.5-2.2c0,0,0,0,0-0.1v-0.1l2.6-1.8h0.1l3.5,2c0,0,0,0,0,0.1v0.1L333.4,355.6
			C333.5,355.6,333.5,355.6,333.4,355.6z"/>
		<path class="st4" d="M336.1,353.4l-3.5-2h-0.1l-0.6,0.5l2.8,1.6c0,0,0,0,0.1,0.1v0.1l-1.9,1.5l0.7,0.4c0,0,0,0,0.1,0
			c0,0,0,0,0.1,0l2.6-2C336.1,353.5,336.1,353.5,336.1,353.4z"/>
		<path class="st12" d="M343.4,361.1l-3.5-2.2c0,0,0,0,0-0.1v-0.1l2.6-1.8h0.1l3.5,2c0,0,0,0,0,0.1v0.1L343.4,361.1z"/>
		<path class="st4" d="M346,358.9l-3.5-2h-0.1l-0.6,0.5l2.8,1.6c0,0,0,0,0,0.1v0.1l-1.9,1.5l0.7,0.4c0,0,0,0,0.1,0c0,0,0,0,0.1,0
			l2.6-2C346,359.1,346.1,359.1,346,358.9C346.1,359,346,359,346,358.9z"/>
		<path class="st13" d="M170.2,225.8c-0.9,0.2-1.8,0.3-2.6,0.2c-0.8-0.1-1.5-0.3-2.1-0.7c-1.5-0.9-2.1-2-1.8-3.3
			c0.2-1.3,1.3-2.8,3.2-4.3c1.9-1.5,3.9-2.4,5.8-2.7c2.1-0.4,3.8-0.1,5.3,0.8c1.3,0.7,2,1.7,2.1,2.7c0.1,0.9-0.2,1.7-0.9,2.5
			c-0.2,0.3-0.8,0.4-1,0.2l-0.9-0.6c-0.4-0.2-0.6-0.6-0.3-1c0.2-0.3,0.2-0.6,0.2-0.9c-0.1-0.5-0.5-0.9-1.1-1.3
			c-0.9-0.5-1.9-0.6-3.2-0.4c-1.3,0.3-2.5,0.9-3.8,1.9c-1.3,1-2.1,1.9-2.2,2.8c-0.2,0.8,0.2,1.5,1.1,2.1c0.7,0.4,1.5,0.6,2.4,0.5
			c0.9-0.1,1.8-0.4,2.8-0.9l-1.3-0.7c-0.3-0.2-0.5-0.4-0.4-0.7c0-0.3,0.2-0.6,0.6-0.9l0.8-0.6l3.6,2.1c0.4,0.2,0.4,0.7-0.1,1.1
			l-5.6,4.3l-0.6-0.3c-0.6-0.3-0.6-0.8-0.1-1.3L170.2,225.8z"/>
		<path class="st13" d="M179.8,229.4l1.5,0.9c-1.2,0.6-2.4,0.9-3.5,0.9c-1.2,0.1-2.2-0.2-3.2-0.7c-1.2-0.6-1.7-1.5-1.4-2.5
			c0.2-1,1-2.1,2.6-3.3c1.5-1.1,2.9-1.8,4.4-2.1c1.5-0.3,2.8-0.1,3.9,0.6c1.2,0.7,1.7,1.6,1.6,2.6c-0.2,1-1,2.1-2.6,3.3l-0.2,0.2
			l-0.2,0.1c-0.1,0.1-0.2,0.2-0.2,0.2l-5.2-3c-0.7,0.6-1.1,1-1.1,1.5c-0.1,0.4,0.1,0.8,0.6,1.1c0.3,0.2,0.7,0.3,1.1,0.3
			c0.1,0,0.2,0,0.3,0c0.2,0,0.2,0,0.4-0.1c0.1-0.1,0.2-0.1,0.5-0.1C179.3,229.1,179.6,229.2,179.8,229.4z M178.9,225.2l3.1,1.7
			c0.6-0.5,0.9-0.9,0.9-1.3c0.1-0.4-0.2-0.7-0.6-1c-0.5-0.2-0.9-0.3-1.6-0.2C180,224.5,179.4,224.8,178.9,225.2z"/>
		<path class="st13" d="M191.2,223.9l1.1,0.6c0.2,0.2,0.4,0.4,0.4,0.6c0,0.3-0.2,0.6-0.5,0.8l-10.3,7.9c-0.2,0.2-0.6,0.2-0.8,0.1
			l-1.3-0.8c-0.2-0.1-0.2-0.4,0.1-0.6L191.2,223.9z"/>
		<path class="st13" d="M194.3,225.6l1.1,0.6c0.3,0.2,0.4,0.4,0.4,0.7c0,0.3-0.2,0.6-0.5,0.8l-0.7,0.6l-1.8-1
			c-0.2-0.1-0.2-0.3,0.1-0.5L194.3,225.6z M191.6,227.6l1.1,0.6c0.3,0.2,0.4,0.4,0.4,0.7c0,0.3-0.2,0.6-0.5,0.8l-7.6,5.8
			c-0.2,0.2-0.6,0.2-0.7,0.1l-1.4-0.8c-0.2-0.1-0.2-0.3,0.1-0.5L191.6,227.6z"/>
		<path class="st13" d="M201.5,233.4l-5.4,4.1c-1.7,1.3-3.1,1.8-4.3,1.8c-1.3-0.1-2.3-0.3-3.2-0.8c-0.9-0.6-1.3-1.2-1.6-2
			c-0.2-0.8,0.5-1.8,2.1-3l4.9-3.7c0.3-0.2,0.7-0.3,1-0.2l1.2,0.7c0.2,0.2,0.2,0.5-0.1,0.7l-5.4,4.1c-0.6,0.4-0.8,0.8-0.8,1.2
			c0,0.4,0.2,0.6,0.6,0.9c0.4,0.2,0.8,0.3,1.3,0.3c0.6,0,1.1-0.2,1.7-0.7l4.7-3.6c0.3-0.2,0.7-0.4,1.1-0.5c0.4-0.1,0.8,0,1.1,0.2
			L201.5,233.4z"/>
		<path class="st13" d="M195.9,238.5l1.6,0.9c0.2,0.2,0.3,0.4,0.1,0.6c-0.2,0.2-0.2,0.5-0.2,0.6c0.1,0.4,0.3,0.7,0.9,0.9
			c0.4,0.2,0.7,0.3,1.2,0.4c0.4,0,0.7-0.1,1-0.3c0.4-0.3,0.3-0.8-0.3-1.4c-0.3-0.2-0.5-0.5-0.6-0.6c-0.8-0.9-1.1-1.5-1.1-2.1
			s0.4-1.1,1-1.7c0.9-0.7,1.9-1,3.1-1.2c1.1-0.1,2.2,0.2,3.2,0.7c1,0.6,1.6,1.3,1.7,2.1c0,0.6-0.3,1.3-0.9,1.9
			c-0.2,0.2-0.6,0.3-0.9,0.2l-0.9-0.6c-0.4-0.2-0.5-0.6-0.3-0.9c0-0.2,0-0.2,0-0.3c0-0.3-0.2-0.6-0.7-0.8c-0.4-0.2-0.8-0.3-1.1-0.4
			c-0.3,0-0.6,0.1-0.9,0.3c-0.4,0.3-0.2,0.9,0.6,1.7c0.1,0.1,0.2,0.2,0.2,0.2c0.1,0.1,0.2,0.2,0.2,0.2c0.7,0.8,1.1,1.5,1.1,2.1
			c0,0.6-0.4,1.1-1.1,1.6c-1,0.8-2.1,1.2-3.3,1.3c-1.1,0.1-2.3-0.3-3.5-0.9c-1.2-0.6-1.7-1.3-1.7-2.1c-0.1-0.7,0.5-1.5,1.4-2.3
			L195.9,238.5z"/>
		<path class="st13" d="M153.8,208.6c-0.8,0.6-2,0.7-2.6,0.4l-0.6-0.3c-0.6-0.4-0.6-1.2,0.2-1.7l0.6-0.5c0.8-0.6,2-0.7,2.6-0.4
			l0.6,0.3c0.6,0.4,0.6,1.2-0.2,1.7L153.8,208.6z"/>
		<path class="st13" d="M160,207.7c-0.8,0.6-2,0.7-2.6,0.4l-0.6-0.3c-0.6-0.4-0.6-1.2,0.2-1.7l0.6-0.5c0.8-0.6,2-0.7,2.6-0.4
			l0.6,0.3c0.6,0.4,0.6,1.2-0.2,1.7L160,207.7z"/>
		<path class="st13" d="M159.7,211.9c-0.8,0.6-2,0.7-2.6,0.4l-0.6-0.3c-0.6-0.4-0.6-1.2,0.2-1.7l0.6-0.5c0.8-0.6,2-0.7,2.6-0.4
			l0.6,0.3c0.6,0.4,0.6,1.2-0.2,1.7L159.7,211.9z"/>
		<path class="st13" d="M153.4,212.9c-0.8,0.6-2,0.7-2.6,0.4l-0.6-0.3c-0.6-0.4-0.6-1.2,0.2-1.7l0.6-0.5c0.8-0.6,2-0.7,2.6-0.4
			l0.5,0.3c0.6,0.4,0.6,1.2-0.2,1.7L153.4,212.9z"/>
		<path class="st13" d="M169.2,208.6c-0.8,0.6-2,0.7-2.6,0.4l-0.6-0.3c-0.6-0.4-0.6-1.2,0.2-1.7l0.6-0.5c0.8-0.6,2-0.7,2.6-0.4
			l0.6,0.3c0.6,0.4,0.6,1.2-0.2,1.7L169.2,208.6z"/>
		<path class="st13" d="M157.7,207.1l0.1-0.5l-3.2,0.5l-0.1,0.5L157.7,207.1z"/>
		<path class="st13" d="M157.8,214.3l0.7-0.1l0.2-2.2l-0.7,0.1L157.8,214.3z"/>
		<path class="st13" d="M157.2,211.3l0.1-0.5l-3.2,0.5l-0.1,0.5L157.2,211.3z"/>
		<path class="st13" d="M158.3,209.8l0.7-0.1l0.2-2.2l-0.7,0.1L158.3,209.8z"/>
		<path class="st13" d="M159.2,216.3c-0.8,0.6-2,0.7-2.6,0.4l-0.6-0.3c-0.6-0.4-0.6-1.2,0.2-1.7l0.6-0.5c0.8-0.6,2-0.7,2.6-0.4
			l0.6,0.3c0.6,0.4,0.6,1.2-0.2,1.7L159.2,216.3z"/>
		<path class="st13" d="M158.8,220.5c-0.8,0.6-2,0.7-2.6,0.4l-0.6-0.3c-0.6-0.4-0.6-1.2,0.2-1.7l0.6-0.5c0.8-0.6,2-0.7,2.6-0.4
			l0.6,0.3c0.6,0.4,0.6,1.2-0.2,1.7L158.8,220.5z"/>
		<path class="st13" d="M152.6,221.4c-0.8,0.6-2,0.7-2.6,0.4l-0.6-0.3c-0.6-0.4-0.6-1.2,0.2-1.7l0.6-0.5c0.8-0.6,2-0.7,2.6-0.4
			l0.6,0.3c0.6,0.4,0.6,1.2-0.2,1.7L152.6,221.4z"/>
		<path class="st13" d="M165.5,215.3c-0.8,0.6-2,0.7-2.6,0.4l-0.6-0.3c-0.6-0.4-0.6-1.2,0.2-1.7l0.6-0.5c0.8-0.6,2-0.7,2.6-0.4
			l0.6,0.3c0.6,0.4,0.6,1.2-0.2,1.7L165.5,215.3z"/>
		<path class="st13" d="M157.4,218.4l0.7-0.1l0.2-2.2l-0.7,0.1L157.4,218.4z"/>
		<path class="st13" d="M156.4,219.9l0.1-0.5l-3.2,0.5l-0.1,0.5L156.4,219.9z"/>
		<path class="st13" d="M163.2,214.7l0.1-0.5l-3.2,0.5l-0.1,0.5L163.2,214.7z"/>
		<path class="st14" d="M283,128.6c2-1.2,4-2.4,5.9-3.6c0,0-4.7,1.5-9,3.2c-1.3-0.1-2.6-0.2-3.9-0.1c-12.7,0.1-27.4,5.3-38.4,14.5
			c-16.7,14-18.9,32-4.8,40.2c14.1,8.2,39,3.5,55.8-10.5c6.6-5.5,10.9-11.7,12.9-17.6c16.1-2.5,23.1,5.7,23.3,5.8
			c-6.3-7.7-14-9.7-22.5-8.7c-17.7,2.1-39.1,16.9-59.1,20.3c-11.2,1.9-9.8-3.2-4.1-9.8C249.2,150.5,267.5,138.2,283,128.6z"/>
		<path class="st14" d="M317.8,138c-6.1-1.6-13.3-0.6-17.8,0.4c-1.3-2-3-3.8-5.2-5.3c5.3-2.2,9.4-3.2,9.4-3.2
			c-3.6,0.4-7.3,1.1-11,2.2c-11.9,3.5-24.1,10.4-33.4,18.7c-12.8,11.5,3.1,5.8,27.6-5.7c5-2.3,9.4-3.9,13.5-4.9
			c13.9-3.4,23.3,0.4,32.4,7.6C333.4,147.9,327.3,140.5,317.8,138z"/>
		<path class="st14" d="M253.9,205.5l-7.6,6.4l-1.6-0.9l4.6-3.8l-6,3l-1.3-0.7l3.2-4.7l-4.6,3.8l-1.6-0.9l7.6-6.4l1.9,1.1l-3.5,5.5
			l7.1-3.4L253.9,205.5z M241.7,198.4l-4.6,3.8c-0.5,0.4-0.7,0.7-0.8,1c-0.1,0.3,0.1,0.6,0.5,0.8c0.4,0.2,0.8,0.3,1.2,0.2
			c0.4-0.1,0.9-0.3,1.4-0.7l4.6-3.8l1.6,0.9l-4.6,3.8c-0.7,0.6-1.4,1-2.1,1.2c-0.7,0.3-1.4,0.4-2.1,0.3c-0.7,0-1.2-0.2-1.7-0.5
			c-0.5-0.3-0.8-0.7-1-1.1c-0.2-0.4-0.1-0.9,0.1-1.4s0.7-1.1,1.4-1.7l4.6-3.8L241.7,198.4z M229.1,202.1c-0.5-0.3-0.8-0.6-1-1
			c-0.2-0.4-0.2-0.8-0.1-1.2c0.1-0.4,0.4-0.9,0.9-1.3l1.7,1c-0.3,0.3-0.4,0.5-0.4,0.7s0.1,0.4,0.3,0.5c0.2,0.1,0.5,0.2,0.7,0.2
			c0.3,0,0.5-0.1,0.7-0.3c0.2-0.2,0.3-0.3,0.3-0.5s0-0.3-0.1-0.5c-0.1-0.2-0.2-0.4-0.4-0.6c-0.3-0.4-0.4-0.7-0.6-1
			c-0.1-0.3-0.1-0.6,0-1c0.1-0.4,0.4-0.7,0.9-1.1c0.7-0.6,1.5-0.9,2.3-1s1.6,0.1,2.3,0.5c0.7,0.4,1.1,0.9,1.1,1.5s-0.3,1.2-1,1.8
			l-1.7-1c0.2-0.2,0.4-0.4,0.4-0.6s-0.1-0.4-0.3-0.5c-0.2-0.1-0.4-0.1-0.6-0.1s-0.5,0.1-0.7,0.3c-0.2,0.2-0.3,0.4-0.3,0.7
			c0.1,0.2,0.2,0.5,0.5,0.9c0.2,0.4,0.4,0.7,0.5,1s0.1,0.6,0,0.9c-0.1,0.4-0.4,0.7-0.8,1.1c-0.4,0.4-0.9,0.6-1.5,0.8
			c-0.5,0.2-1.1,0.3-1.7,0.2C230.1,202.5,229.6,202.3,229.1,202.1z M227.8,195.2c0.3,0.2,0.6,0.2,0.9,0.2c0.3-0.1,0.6-0.2,0.9-0.5
			c0.3-0.3,0.5-0.5,0.5-0.7s-0.1-0.4-0.4-0.6l-0.9-0.5l-1.9,1.6L227.8,195.2z M231.2,195.8c-0.4,0.4-0.9,0.7-1.5,0.9
			c-0.5,0.2-1.1,0.3-1.7,0.3s-1.1-0.2-1.7-0.5l-1-0.6l-2.7,2.3l-1.6-0.9l7.6-6.4l2.5,1.5c0.5,0.3,0.8,0.6,1,1
			c0.1,0.4,0.1,0.8-0.1,1.2C232,195,231.7,195.4,231.2,195.8z M227.6,190.2l-7.6,6.4l-1.6-0.9l7.6-6.4L227.6,190.2z M225,188.7
			l-7.6,6.4l-1.6-0.9l4.6-3.8l-6,3l-1.3-0.7l3.2-4.7l-4.6,3.8l-1.6-0.9l7.6-6.4l1.9,1.1L216,191l7.1-3.4L225,188.7z M212.8,183.7
			l-1.5,1.3l2.1,1.2l-1.4,1.2l-2.1-1.2l-1.7,1.4l2.4,1.4l-1.5,1.2l-3.9-2.3l7.6-6.4l3.9,2.3l-1.5,1.2L212.8,183.7z M204.9,181.8
			l1,0.6c0.3,0.2,0.6,0.2,0.9,0.2c0.3-0.1,0.6-0.2,0.9-0.5c0.3-0.2,0.4-0.5,0.5-0.7c0-0.2-0.1-0.4-0.4-0.6l-1-0.6L204.9,181.8z
			 M202.4,186.4l1.5-3.2l-0.4-0.2l-2.9,2.4l-1.6-0.9l7.6-6.4l2.6,1.5c0.5,0.3,0.8,0.6,1,1c0.1,0.4,0.1,0.8-0.1,1.2
			c-0.2,0.4-0.5,0.8-1,1.2s-1.1,0.7-1.7,0.9c-0.6,0.2-1.3,0.2-1.9,0.1l-1.5,3.4L202.4,186.4z M196.6,180.7c0.5,0.3,1.1,0.4,1.8,0.2
			c0.7-0.2,1.4-0.5,2.1-1.1c0.7-0.6,1.1-1.1,1.2-1.6c0.1-0.5-0.1-0.9-0.6-1.2s-1.1-0.4-1.8-0.2s-1.4,0.5-2.1,1.1
			c-0.7,0.6-1.1,1.1-1.2,1.6C195.8,179.9,196,180.4,196.6,180.7z M194.9,182.1c-0.6-0.4-1-0.8-1.2-1.4c-0.2-0.6-0.1-1.2,0.2-1.9
			c0.3-0.7,0.8-1.3,1.6-1.9c0.7-0.6,1.6-1.1,2.5-1.4s1.8-0.5,2.6-0.5c0.8,0,1.6,0.2,2.2,0.6c0.6,0.4,1,0.8,1.2,1.4s0.1,1.2-0.2,1.9
			c-0.3,0.7-0.8,1.3-1.6,1.9c-0.7,0.6-1.6,1.1-2.5,1.4c-0.9,0.3-1.8,0.5-2.6,0.5C196.2,182.6,195.5,182.4,194.9,182.1z M233.4,206.8
			l-0.3-0.2l-2.8,2.4l0.4,0.2l2-1.7L232,210l0.3,0.2l2.8-2.4l-0.4-0.2l-2,1.7L233.4,206.8z M228.5,206.5l-1-0.6l1.8-0.8L228.5,206.5
			z M227.8,207.5l0.4,0.2l1.8-3l-0.4-0.2l-3.9,1.7l0.4,0.2l0.8-0.4l1.3,0.7L227.8,207.5z M226.2,203.1c0-0.4-0.1-0.7-0.4-0.9
			c-0.4-0.2-0.8-0.3-1.3-0.2s-1,0.3-1.4,0.7c-0.2,0.2-0.3,0.3-0.5,0.5c-0.2,0.2-0.2,0.3-0.2,0.5s0,0.3,0.1,0.5s0.2,0.3,0.4,0.4
			c0.4,0.2,0.8,0.3,1.4,0.1l1.2-1l-1-0.6l-0.4,0.3l0.7,0.4l-0.6,0.5c-0.3,0-0.6,0-0.8-0.1c-0.3-0.2-0.4-0.4-0.4-0.6
			c0-0.2,0.2-0.5,0.5-0.7c0.3-0.3,0.6-0.4,1-0.5c0.4-0.1,0.7,0,1,0.1c0.1,0.1,0.2,0.2,0.3,0.3c0.1,0.1,0.1,0.2,0.1,0.4L226.2,203.1z
			 M218.9,200.4c0.3-0.3,0.6-0.4,1-0.5c0.3-0.1,0.7,0,0.9,0.1s0.3,0.2,0.3,0.4c0,0.2,0,0.3-0.1,0.5c-0.1,0.2-0.2,0.3-0.4,0.5
			c-0.3,0.2-0.6,0.4-0.9,0.5c-0.3,0.1-0.6,0-0.9-0.1c-0.1-0.1-0.2-0.2-0.3-0.3c0-0.1-0.1-0.2,0-0.4c0-0.1,0.1-0.2,0.2-0.4
			C218.6,200.6,218.8,200.5,218.9,200.4z M221.2,199.6c-0.4-0.2-0.8-0.3-1.3-0.2c-0.5,0.1-1,0.3-1.4,0.7c-0.2,0.2-0.3,0.3-0.5,0.5
			c-0.1,0.2-0.2,0.3-0.2,0.5c0,0.2,0,0.3,0.1,0.5c0.1,0.2,0.2,0.3,0.4,0.4s0.4,0.2,0.7,0.2c0.2,0,0.5,0,0.7,0
			c0.2-0.1,0.5-0.1,0.7-0.3c0.2-0.1,0.4-0.3,0.6-0.4c0.4-0.3,0.6-0.7,0.7-1.1C221.7,200.1,221.6,199.8,221.2,199.6z M216.4,196.9
			l-2.8,2.4l1.6,0.9l0.4-0.3l-1.2-0.7l2.4-2L216.4,196.9z M213.7,195.9c0.1-0.4,0-0.7-0.4-0.9c-0.1-0.1-0.2-0.1-0.4-0.2
			c-0.1,0-0.3-0.1-0.4-0.1c-0.2,0-0.3,0-0.5,0.1c-0.2,0.1-0.3,0.1-0.5,0.3c-0.1,0.1-0.2,0.2-0.3,0.3c-0.1,0.1-0.1,0.2-0.1,0.3
			c0,0.1,0,0.2,0.1,0.2c0,0.1,0.1,0.2,0.2,0.2c0.1,0.1,0.1,0.1,0.2,0.2c0.2,0.1,0.3,0.3,0.3,0.4c0,0.1,0,0.2-0.2,0.4
			c-0.1,0.1-0.2,0.2-0.4,0.2c-0.1,0-0.3,0-0.4,0c-0.1,0-0.2-0.1-0.3-0.1c-0.3-0.2-0.4-0.5-0.3-0.8h-0.5c-0.2,0.5-0.1,0.8,0.4,1.1
			c0.2,0.1,0.4,0.2,0.6,0.2s0.4,0,0.6,0c0.2-0.1,0.4-0.2,0.6-0.3c0.2-0.1,0.3-0.2,0.3-0.4c0.1-0.1,0.1-0.2,0-0.3
			c0-0.1-0.1-0.2-0.2-0.3c-0.1-0.1-0.2-0.2-0.3-0.3c-0.2-0.1-0.3-0.3-0.3-0.4c0-0.1,0-0.2,0.1-0.3c0.1-0.1,0.3-0.2,0.5-0.2
			c0.2,0,0.3,0,0.5,0.1c0.1,0.1,0.2,0.2,0.3,0.3c0,0.1,0.1,0.2,0,0.3H213.7z M208.9,193.1c0.1,0.1,0.2,0.2,0.2,0.3
			c0,0.1-0.1,0.3-0.2,0.4c-0.1,0.1-0.3,0.2-0.5,0.2c-0.2,0-0.3,0-0.5-0.1l-0.7-0.4l1-0.9L208.9,193.1z M207.5,195.6l0.2-1.2
			c0.3,0.1,0.5,0.1,0.8,0c0.3-0.1,0.5-0.2,0.7-0.4c0.3-0.2,0.4-0.4,0.4-0.7c0-0.2-0.1-0.4-0.3-0.6c-0.1-0.1-0.3-0.2-0.5-0.3
			c-0.2-0.1-0.4-0.3-0.5-0.3l-2.8,2.4l0.4,0.2l1-0.8l0.5,0.3l-0.3,1.2L207.5,195.6z M205.5,190.6l-1.6,1.4c-0.3,0.2-0.5,0.4-0.8,0.4
			c-0.3,0-0.5,0-0.7-0.1c-0.2-0.1-0.2-0.3-0.2-0.4c0-0.2,0.2-0.4,0.4-0.6l1.6-1.4l-0.4-0.2l-1.6,1.4c-0.4,0.3-0.6,0.6-0.6,0.9
			s0.1,0.5,0.4,0.7s0.6,0.2,1,0.2c0.4-0.1,0.8-0.3,1.2-0.6l1.6-1.4L205.5,190.6z M198.3,188.3c0.3-0.3,0.6-0.4,1-0.5
			c0.3-0.1,0.7,0,0.9,0.1c0.2,0.1,0.3,0.2,0.3,0.4s0,0.3-0.1,0.5c-0.1,0.2-0.2,0.3-0.4,0.5c-0.3,0.2-0.6,0.4-0.9,0.5
			c-0.3,0.1-0.6,0-0.9-0.1c-0.1-0.1-0.2-0.2-0.3-0.3c0-0.1-0.1-0.2,0-0.4c0-0.1,0.1-0.2,0.2-0.4C198,188.6,198.1,188.4,198.3,188.3z
			 M200.6,187.6c-0.4-0.2-0.8-0.3-1.3-0.2c-0.5,0.1-1,0.3-1.4,0.7c-0.2,0.2-0.3,0.3-0.5,0.5c-0.1,0.2-0.2,0.3-0.2,0.5
			c0,0.2,0,0.3,0.1,0.5c0.1,0.2,0.2,0.3,0.4,0.4s0.4,0.2,0.7,0.2c0.2,0,0.5,0,0.7,0c0.2-0.1,0.5-0.1,0.7-0.3
			c0.2-0.1,0.4-0.3,0.6-0.4c0.4-0.3,0.6-0.7,0.7-1.1C201.1,188.1,201,187.8,200.6,187.6z M195.8,184.8l-0.4-0.3l-0.7,1.9l-1.2,1
			l0.4,0.2l1.2-1l2.6-0.8l-0.5-0.3l-1.9,0.6L195.8,184.8z M190.5,177.4l2.1,1.2l-1.4,1.2l-3.6-2.1l7.6-6.4l1.6,0.9L190.5,177.4z"/>
	</g>
</g>
</svg>
