<svg width="0" height="0" class="hidden">

  <symbol fill="currentColor" xmlns="http://www.w3.org/2000/svg" viewBox="0 0 28 34" id="figure">
    <path fill-rule="evenodd" clip-rule="evenodd" d="M18.851 0C19.277 0 19.702 0 20.128 0C21.995 0.065 22.809 2.41 22.143 4.165C21.475 5.928 17.62 6.353 16.835 4.099C16.611 3.453 16.502 2.276 16.835 1.411C17.075 0.79 17.646 0.235 18.851 0Z"></path>
    <path fill-rule="evenodd" clip-rule="evenodd" d="M27.652 23.447C27.148 22.161 24.957 21.683 23.352 22.439C22.787 22.085 22.394 21.56 21.941 21.095C22.379 20.308 22.447 18.438 21.941 17.669C22.13 17.159 22.827 16.588 23.352 16.191C24.264 16.677 25.536 16.665 26.308 16.393C28.286 15.695 28.412 11.832 26.308 11.085C24.779 10.542 22.844 11.067 22.345 12.362C22.01 13.231 22.136 14.887 22.614 15.519C22.258 16.081 21.724 16.465 21.27 16.93C20.496 16.418 18.685 16.38 17.843 16.863C17.334 16.673 16.763 15.976 16.365 15.452C18.073 12.598 15.061 9.63698 12.267 11.353C11.735 10.989 11.108 10.362 10.856 9.94298C11.533 8.24998 11.085 6.18398 9.84803 5.64198C8.94603 5.24698 7.63603 5.37198 6.95903 5.64198C5.40803 6.26198 5.29103 8.56198 5.95103 10.076C5.65703 10.588 5.11203 10.849 4.80903 11.353C1.94703 10.026 -0.552966 11.653 0.106034 14.847C0.525034 16.879 4.88903 17.322 5.54803 14.981C5.75903 14.23 5.74003 12.834 5.27903 12.093C5.68203 11.577 6.20803 11.184 6.62303 10.681C7.35803 11.147 9.48203 11.227 10.117 10.614C10.682 10.968 11.075 11.493 11.528 11.958C11.078 12.73 11.009 14.695 11.528 15.452C11.371 15.973 10.62 16.465 10.184 16.93C7.35903 15.602 4.91403 17.347 5.68303 20.49C5.99303 21.758 7.68403 22.483 9.51303 22.036C11.152 21.635 11.595 19.451 10.79 17.668C11.198 17.092 11.691 16.599 12.268 16.19C12.997 16.677 14.965 16.674 15.694 16.19C16.248 16.577 16.719 17.046 17.105 17.601C16.572 18.293 16.563 19.819 16.836 20.624C17.366 22.187 19.721 22.583 21.271 21.699C21.714 22.129 22.396 22.678 22.615 23.109C22.15 23.866 22.063 26.013 22.682 26.67C22.285 27.124 21.859 27.549 21.406 27.946C20.119 27.187 18.679 27.348 17.722 28.089C17.324 28.352 17.078 28.677 16.943 29.027C16.579 29.745 16.516 30.66 16.933 31.679C16.937 31.691 16.939 31.703 16.943 31.714C17.437 33.135 19.149 33.491 20.515 33.12C20.543 33.12 20.571 33.12 20.598 33.12C21.021 33.077 21.373 32.872 21.651 32.564C21.923 32.347 22.135 32.084 22.25 31.78C22.618 30.81 22.532 29.661 22.068 28.815C22.048 28.772 22.031 28.727 22.01 28.685C22.308 28.133 22.883 27.855 23.219 27.341C26.265 28.724 28.818 26.424 27.652 23.447Z"></path>
  </symbol>

  <symbol viewBox="0 0 107 35" fill="currentColor" xmlns="http://www.w3.org/2000/svg" id="logo">
    <path d="M19.52 34.0699C19.49 34.0599 19.46 34.0399 19.43 34.0399C18.33 33.8499 17.54 32.9299 17.51 31.8199C17.5 31.4799 17.5 31.1299 17.51 30.7799C17.53 29.6599 18.33 28.7299 19.44 28.5499C19.5 28.5399 19.57 28.5299 19.63 28.5299C20.08 28.5299 20.53 28.5199 20.97 28.5399C21.35 28.5499 21.7 28.6899 22.01 28.8899C22.04 28.9099 22.07 28.9299 22.09 28.9399C22.52 28.5099 22.94 28.0899 23.37 27.6599C23.36 27.6399 23.34 27.6099 23.32 27.5699C23.1 27.2199 22.97 26.8399 22.96 26.4299C22.95 26.0299 22.95 25.6199 22.97 25.2199C22.98 24.8199 23.12 24.4499 23.34 24.1099C23.35 24.0899 23.37 24.0599 23.37 24.0599C22.91 23.5999 22.45 23.1399 21.99 22.6799C21.97 22.6899 21.93 22.7099 21.89 22.7399C21.53 22.9599 21.14 23.0799 20.71 23.0899C20.36 23.0899 20.02 23.0899 19.67 23.0899C18.53 23.0799 17.57 22.2199 17.44 21.0799C17.41 20.8099 17.42 20.5399 17.42 20.2699C17.42 20.0399 17.42 19.8199 17.43 19.5899C17.46 19.2199 17.59 18.8799 17.79 18.5599C17.8 18.5399 17.82 18.5099 17.82 18.5099C17.36 18.0499 16.9 17.5899 16.43 17.1199C16.43 17.1199 16.41 17.1199 16.4 17.1299C16.05 17.3499 15.66 17.4799 15.24 17.4799C14.85 17.4899 14.46 17.4799 14.08 17.4699C13.69 17.4599 13.34 17.3399 13.01 17.1399C12.99 17.1299 12.96 17.1099 12.94 17.0999C12.94 17.0999 12.93 17.0999 12.94 17.0999C12.46 17.5799 11.98 18.0599 11.51 18.5299C11.59 18.7199 11.69 18.9099 11.76 19.1099C11.84 19.3199 11.87 19.5499 11.87 19.7799C11.87 20.1099 11.87 20.4499 11.87 20.7799C11.87 22.0299 10.87 23.0499 9.62 23.0599C9.27 23.0599 8.92 23.0699 8.57 23.0599C7.39 23.0399 6.41 22.1199 6.34 20.9499C6.31 20.4899 6.31 20.0199 6.35 19.5599C6.42 18.6499 7.1 17.8399 8.03 17.5999C8.24 17.5399 8.47 17.5199 8.68 17.5199C9.01 17.5099 9.34 17.5199 9.67 17.5299C10.09 17.5399 10.46 17.6599 10.81 17.8799C10.83 17.8899 10.86 17.9099 10.86 17.9099C11.34 17.4299 11.82 16.9499 12.3 16.4699C12.25 16.3899 12.19 16.2899 12.14 16.1799C12 15.8899 11.92 15.5799 11.92 15.2599C11.91 14.8599 11.91 14.4499 11.93 14.0499C11.94 13.6799 12.07 13.3399 12.26 13.0299C12.28 12.9999 12.29 12.9799 12.3 12.9599C11.83 12.4899 11.38 12.0399 10.91 11.5699C10.89 11.5799 10.84 11.6099 10.8 11.6299C10.43 11.8599 10.03 11.9799 9.59 11.9799C9.21 11.9799 8.84 11.9799 8.46 11.9699C8.11 11.9599 7.78 11.8499 7.48 11.6799C7.45 11.6599 7.42 11.6499 7.41 11.6399C6.95 12.0999 6.5 12.5499 6.04 13.0099C6.04 13.0099 6.06 13.0499 6.07 13.0799C6.26 13.4099 6.37 13.7599 6.37 14.1399C6.38 14.5199 6.38 14.9099 6.37 15.2899C6.32 16.4599 5.41 17.3999 4.24 17.4699C3.81 17.4899 3.38 17.4899 2.95 17.4699C1.99 17.4199 1.15 16.7199 0.909999 15.7799C0.879999 15.6699 0.849999 15.5699 0.809999 15.4599C0.809999 14.9499 0.809999 14.4499 0.809999 13.9399C0.829999 13.8899 0.859999 13.8399 0.869999 13.7799C1.08 12.7399 1.97 11.9699 3.04 11.9299C3.44 11.9199 3.85 11.9199 4.25 11.9299C4.63 11.9399 4.98 12.0699 5.3 12.2699C5.35 12.2999 5.39 12.3299 5.42 12.3399C5.87 11.8899 6.3 11.4599 6.75 11.0099C6.59 10.7799 6.46 10.5199 6.4 10.2299C6.37 10.0699 6.33 9.90991 6.33 9.74991C6.32 9.33991 6.31 8.92991 6.34 8.51991C6.41 7.47991 7.23 6.59991 8.26 6.43991C8.38 6.41991 8.51 6.40991 8.63 6.40991C8.96 6.40991 9.29 6.40991 9.62 6.40991C10.71 6.40991 11.68 7.23991 11.84 8.31991C11.86 8.44991 11.87 8.58991 11.87 8.71991C11.87 9.01991 11.87 9.31991 11.87 9.62991C11.88 10.0599 11.77 10.4599 11.55 10.8299C11.54 10.8499 11.53 10.8799 11.51 10.8999C11.51 10.8999 11.51 10.9099 11.51 10.8999C11.98 11.3699 12.44 11.8299 12.91 12.2999C12.93 12.2899 12.96 12.2699 12.99 12.2499C13.35 12.0299 13.73 11.9099 14.15 11.9099C14.52 11.9099 14.88 11.8999 15.25 11.9099C16.46 11.9499 17.42 12.9299 17.45 14.1299C17.46 14.4699 17.46 14.8199 17.45 15.1699C17.45 15.6199 17.32 16.0399 17.07 16.4199C17.06 16.4299 17.06 16.4499 17.06 16.4399C17.53 16.9099 17.99 17.3699 18.46 17.8399C18.46 17.8399 18.49 17.8299 18.52 17.8099C18.9 17.5899 19.31 17.4899 19.74 17.4899C20.07 17.4899 20.4 17.4999 20.73 17.4999C21.13 17.4999 21.5 17.6199 21.85 17.8299C21.88 17.8499 21.91 17.8599 21.92 17.8699C22.38 17.4099 22.84 16.9499 23.31 16.4899C23.3 16.4799 23.29 16.4499 23.27 16.4199C23.01 16.0299 22.89 15.5999 22.89 15.1399C22.89 14.8199 22.89 14.4999 22.89 14.1899C22.91 13.1099 23.63 12.2099 24.69 11.9699C24.82 11.9399 24.95 11.9199 25.07 11.9199C25.46 11.9099 25.86 11.9099 26.25 11.9199C27.37 11.9599 28.31 12.8299 28.42 13.9399C28.47 14.4599 28.47 14.9699 28.42 15.4899C28.32 16.4199 27.54 17.2499 26.6 17.4199C26.48 17.4399 26.37 17.4599 26.25 17.4599C25.8 17.4599 25.35 17.4699 24.91 17.4399C24.56 17.4199 24.24 17.2799 23.96 17.1099C23.49 17.5799 23.03 18.0399 22.56 18.5099C22.57 18.5199 22.58 18.5499 22.6 18.5799C22.84 18.9699 22.96 19.3999 22.95 19.8599C22.95 20.0899 22.94 20.3199 22.95 20.5599C22.97 21.0799 22.87 21.5699 22.59 22.0099C22.65 22.1199 23.83 23.3099 23.97 23.4099C24.18 23.3199 24.38 23.2199 24.59 23.1599C24.8 23.0999 25.01 23.0699 25.23 23.0599C25.55 23.0399 25.88 23.0599 26.2 23.0599C27.47 23.0599 28.49 24.0799 28.49 25.3599C28.49 25.6899 28.49 26.0199 28.49 26.3499C28.49 27.5699 27.49 28.5899 26.27 28.6099C25.9 28.6199 25.54 28.6199 25.17 28.6099C24.8 28.5999 24.46 28.4999 24.14 28.3299C24.1 28.3099 24.06 28.2799 24.03 28.2699C23.59 28.7099 23.16 29.1399 22.71 29.5899C22.72 29.6099 22.75 29.6599 22.77 29.7099C22.96 30.0599 23.05 30.4299 23.05 30.8299C23.05 31.2199 23.06 31.6199 23.03 32.0099C22.93 33.0299 22.17 33.8399 21.16 34.0299C21.12 34.0399 21.09 34.0499 21.06 34.0599C20.56 34.0699 20.04 34.0699 19.52 34.0699Z" />
    <path d="M20.82 0.969971C20.92 0.989971 21.02 1.00997 21.12 1.02997C22.09 1.20997 22.87 2.01997 22.96 3.00997C23 3.51997 23 4.03997 22.96 4.53997C22.87 5.52997 22.05 6.35997 21.07 6.50997C20.92 6.52997 20.76 6.53997 20.6 6.53997C20.3 6.53997 20.01 6.53997 19.71 6.53997C18.56 6.53997 17.58 5.67997 17.45 4.53997C17.42 4.23997 17.43 3.93997 17.43 3.63997C17.43 3.36997 17.42 3.08997 17.48 2.81997C17.69 1.84997 18.48 1.12997 19.46 1.00997C19.51 0.999972 19.55 0.989971 19.6 0.979971C20 0.969971 20.41 0.969971 20.82 0.969971Z" />
    <path d="M106.98 22.9699C106.96 23.0999 106.94 23.2199 106.92 23.3499C106.65 24.9299 105.77 26.0499 104.33 26.7299C103.65 27.0499 102.93 27.2299 102.19 27.3399C101.37 27.4699 100.54 27.4999 99.71 27.4799C98.81 27.4599 97.91 27.3699 97.04 27.1099C96.29 26.8899 95.61 26.5499 95.02 26.0299C94.31 25.3999 93.88 24.6099 93.68 23.6899C93.58 23.2399 93.54 22.7699 93.55 22.3099C93.55 22.2699 93.56 22.2399 93.56 22.1799C93.62 22.1799 93.68 22.1799 93.74 22.1799C94.64 22.1799 95.54 22.1799 96.44 22.1799C97.01 22.1799 97.38 22.4399 97.58 22.9599C97.78 23.4899 98.14 23.8599 98.65 24.0899C99.06 24.2799 99.49 24.3799 99.94 24.4199C100.4 24.4699 100.87 24.4699 101.33 24.3899C101.65 24.3399 101.95 24.2399 102.23 24.0999C102.42 23.9999 102.6 23.8799 102.74 23.7099C102.87 23.5499 102.96 23.3799 102.99 23.1699C103.04 22.8599 102.97 22.5899 102.75 22.3599C102.59 22.1899 102.4 22.0599 102.19 21.9499C101.69 21.6899 101.16 21.5299 100.61 21.4399C99.71 21.2799 98.82 21.0399 97.94 20.7799C97.26 20.5799 96.59 20.3299 95.96 19.9999C95.45 19.7199 94.99 19.3699 94.63 18.9199C94.2 18.3899 93.97 17.7699 93.9 17.0999C93.83 16.4199 93.88 15.7399 94.1 15.0899C94.48 13.9499 95.2 13.0899 96.26 12.5199C97.02 12.1099 97.84 11.8799 98.7 11.7699C99.5 11.6699 100.3 11.6699 101.1 11.7399C102.09 11.8299 103.05 12.0599 103.95 12.5299C105.13 13.1399 105.85 14.1199 106.24 15.3599C106.31 15.5699 106.36 15.7999 106.37 16.0199C106.39 16.4199 106.1 16.7099 105.7 16.7099C105.12 16.7099 104.54 16.7199 103.95 16.7099C103.32 16.6999 102.82 16.4299 102.46 15.9099C102.08 15.3599 101.58 14.9899 100.91 14.8599C100.21 14.7299 99.52 14.7399 98.83 14.9099C98.67 14.9499 98.52 15.0099 98.38 15.0799C97.92 15.3199 97.78 15.7899 97.81 16.1899C97.82 16.3799 97.94 16.5299 98.08 16.6599C98.3 16.8599 98.56 16.9899 98.83 17.0999C99.38 17.3299 99.96 17.4799 100.54 17.6199C100.8 17.6799 101.06 17.7599 101.32 17.8199C101.44 17.8499 101.58 17.8599 101.7 17.8799C101.9 17.9199 102.09 17.9499 102.28 17.9999C103.1 18.2199 103.9 18.4799 104.67 18.8399C104.91 18.9599 105.15 19.0899 105.38 19.2199C106.17 19.6799 106.63 20.3799 106.85 21.2599C106.88 21.3999 106.9 21.5399 106.92 21.6699C106.93 21.7099 106.94 21.7399 106.95 21.7699C106.98 22.1899 106.98 22.5799 106.98 22.9699Z" />
    <path d="M47.69 19.9C47.63 19.9 47.57 19.9 47.52 19.9C46.77 19.9 46.02 19.89 45.27 19.9C44.22 19.92 43.25 18.97 43.27 17.9C43.28 17.51 43.27 17.11 43.27 16.72C43.27 16.67 43.27 16.61 43.27 16.55C43.32 16.54 43.36 16.54 43.4 16.54C45.61 16.54 47.82 16.54 50.03 16.54C50.79 16.54 51.4 17.16 51.42 17.94C51.42 17.98 51.42 18.03 51.42 18.07C51.42 21.04 51.42 24 51.42 26.97C51.42 27.04 51.42 27.11 51.42 27.18C51.4 27.19 51.38 27.21 51.37 27.2C50.91 27.19 50.44 27.21 49.98 27.17C49.3 27.11 48.81 26.75 48.51 26.13C48.36 25.81 48.3 25.47 48.22 25.14C48.2 25.07 48.19 25 48.16 24.9C48.12 24.95 48.08 24.99 48.06 25.02C47.7 25.52 47.28 25.97 46.8 26.36C46.12 26.92 45.33 27.25 44.48 27.44C43.6 27.64 42.71 27.69 41.81 27.64C40.98 27.59 40.17 27.46 39.38 27.21C38.02 26.78 36.87 26.03 35.89 24.98C34.65 23.64 33.91 22.06 33.56 20.28C33.4 19.49 33.32 18.69 33.3 17.89C33.27 16.97 33.31 16.05 33.44 15.13C33.64 13.73 34.03 12.39 34.78 11.18C36.07 9.08001 37.91 7.75001 40.34 7.24001C41.3 7.04001 42.27 6.99001 43.25 7.04001C44.02 7.08001 44.78 7.18001 45.53 7.37001C46.3 7.57001 47.04 7.85001 47.73 8.24001C48.91 8.90001 49.8 9.84001 50.47 11.01C50.75 11.5 50.96 12.03 51.12 12.57C51.22 12.93 51.15 13.25 50.86 13.51C50.71 13.64 50.53 13.69 50.34 13.69C49.73 13.69 49.11 13.69 48.5 13.68C47.78 13.66 47.26 13.3 46.9 12.69C46.77 12.46 46.62 12.24 46.45 12.04C45.88 11.35 45.14 10.92 44.26 10.72C43.37 10.52 42.48 10.48 41.58 10.66C40.24 10.92 39.21 11.65 38.49 12.81C38.02 13.57 37.74 14.4 37.58 15.27C37.44 16.01 37.39 16.76 37.4 17.51C37.41 18.49 37.53 19.46 37.83 20.39C38.12 21.26 38.55 22.05 39.2 22.71C39.74 23.26 40.39 23.65 41.14 23.87C42.18 24.17 43.23 24.21 44.29 23.96C45.54 23.66 46.46 22.93 47.08 21.8C47.39 21.23 47.58 20.61 47.7 19.97C47.69 19.95 47.69 19.94 47.69 19.9Z" />
    <path d="M66.58 20.65C63.28 20.65 60.01 20.65 56.72 20.65C56.71 20.69 56.7 20.72 56.71 20.75C56.74 21.25 56.8 21.75 56.96 22.23C57.13 22.75 57.43 23.19 57.83 23.55C58.2 23.88 58.65 24.06 59.14 24.13C59.69 24.21 60.25 24.2 60.79 24.05C61.07 23.97 61.33 23.86 61.57 23.7C61.76 23.58 61.92 23.41 62.06 23.23C62.33 22.87 62.66 22.63 63.1 22.56C63.23 22.54 63.37 22.53 63.5 22.53C64.4 22.53 65.29 22.53 66.19 22.53C66.25 22.53 66.31 22.53 66.37 22.53C66.37 22.58 66.37 22.61 66.36 22.64C66.07 23.69 65.6 24.66 64.84 25.45C64.04 26.29 63.07 26.86 61.95 27.18C61.31 27.36 60.67 27.45 60.01 27.48C59.38 27.5 58.75 27.48 58.13 27.38C56.08 27.03 54.58 25.93 53.61 24.1C53.2 23.34 52.97 22.51 52.83 21.66C52.68 20.75 52.64 19.83 52.68 18.9C52.73 17.76 52.91 16.65 53.35 15.59C53.9 14.27 54.76 13.22 56.02 12.51C56.65 12.16 57.32 11.93 58.03 11.82C59.31 11.61 60.58 11.65 61.83 11.98C62.91 12.26 63.86 12.78 64.65 13.58C65.23 14.16 65.64 14.86 65.95 15.61C66.25 16.34 66.43 17.09 66.54 17.87C66.65 18.69 66.65 19.51 66.65 20.34C66.61 20.43 66.59 20.53 66.58 20.65ZM62.49 18.07C62.49 18 62.49 17.96 62.49 17.91C62.45 17.44 62.35 16.98 62.17 16.55C61.85 15.78 61.27 15.3 60.46 15.11C60.01 15 59.56 14.99 59.11 15.05C58.46 15.14 57.91 15.42 57.47 15.9C57 16.42 56.8 17.04 56.73 17.72C56.72 17.84 56.71 17.95 56.7 18.07C58.64 18.07 60.56 18.07 62.49 18.07Z" />
    <path d="M92.54 12.03C92.54 12.11 92.54 12.17 92.54 12.23C92.54 15.21 92.55 18.19 92.54 21.18C92.54 22.16 92.42 23.13 92.1 24.06C91.9 24.64 91.61 25.17 91.19 25.63C90.9 25.94 90.56 26.18 90.18 26.38C89.15 26.95 88.05 27.3 86.88 27.43C85.46 27.59 84.1 27.36 82.78 26.84C82.36 26.68 81.97 26.47 81.57 26.26C80.79 25.83 80.25 25.2 79.9 24.39C79.64 23.8 79.5 23.17 79.41 22.54C79.33 21.95 79.31 21.36 79.31 20.77C79.31 18.17 79.31 15.56 79.31 12.96C79.31 12.82 79.32 12.68 79.39 12.55C79.56 12.21 79.83 12.04 80.21 12.04C80.95 12.04 81.69 12.04 82.43 12.04C82.44 12.04 82.45 12.04 82.46 12.04C82.94 12.05 83.3 12.41 83.32 12.89C83.32 12.94 83.32 12.99 83.32 13.04C83.32 15.92 83.32 18.81 83.32 21.69C83.32 21.95 83.35 22.22 83.39 22.48C83.51 23.18 83.92 23.68 84.54 24.01C85.61 24.57 86.93 24.43 87.86 23.66C88.24 23.34 88.44 22.93 88.53 22.46C88.57 22.23 88.6 21.99 88.6 21.75C88.6 19.17 88.6 16.6 88.6 14.02C88.6 13.41 88.81 12.91 89.27 12.5C89.63 12.18 90.07 12.05 90.55 12.05C91.13 12.05 91.71 12.05 92.3 12.05C92.37 12.03 92.44 12.03 92.54 12.03Z" />
    <path d="M68.14 7.61003C68.2 7.61003 68.24 7.60003 68.27 7.60003C68.93 7.60003 69.6 7.59003 70.26 7.60003C71.03 7.62003 71.59 7.99002 71.95 8.66003C72.07 8.89003 72.12 9.15003 72.13 9.41003C72.13 9.45002 72.13 9.49003 72.13 9.52003C72.13 15.14 72.13 20.77 72.13 26.39C72.13 26.47 72.13 26.55 72.12 26.63C72.06 26.97 71.77 27.2 71.42 27.2C70.85 27.2 70.29 27.2 69.72 27.2C69.44 27.2 69.16 27.2 68.88 27.2C68.44 27.2 68.15 26.91 68.14 26.47C68.14 26.43 68.14 26.39 68.14 26.36C68.14 20.19 68.14 14.01 68.14 7.84003C68.14 7.77003 68.14 7.70003 68.14 7.61003Z" />
    <path d="M73.88 12.04C73.94 12.04 73.98 12.03 74.02 12.03C74.66 12.03 75.3 12.03 75.95 12.03C76.99 12.03 77.66 12.82 77.81 13.44C77.85 13.6 77.88 13.77 77.88 13.93C77.88 18.11 77.88 22.3 77.89 26.48C77.89 26.9 77.59 27.19 77.18 27.19C76.32 27.18 75.47 27.18 74.61 27.19C74.17 27.2 73.88 26.88 73.89 26.46C73.9 24.79 73.89 23.13 73.89 21.46C73.89 18.39 73.89 15.31 73.89 12.24C73.88 12.19 73.88 12.12 73.88 12.04Z" />
    <path d="M77.86 10.73C77.81 10.73 77.77 10.74 77.73 10.74C76.67 10.74 75.62 10.74 74.56 10.74C74.23 10.74 73.97 10.54 73.9 10.23C73.89 10.18 73.88 10.13 73.88 10.09C73.88 9.28997 73.88 8.48997 73.88 7.69997C73.88 7.67997 73.88 7.65997 73.89 7.61997C73.94 7.61997 73.99 7.60997 74.04 7.60997C74.68 7.60997 75.31 7.61997 75.95 7.60997C76.93 7.58997 77.84 8.42997 77.87 9.42997C77.88 9.83997 77.87 10.25 77.87 10.66C77.87 10.67 77.86 10.7 77.86 10.73Z" />
  </symbol>

</svg>
